<?xml version="1.0" standalone="no"?>
<!DOCTYPE svg PUBLIC "-//W3C//DTD SVG 1.1//EN" "http://www.w3.org/Graphics/SVG/1.1/DTD/svg11.dtd">
<svg xmlns="http://www.w3.org/2000/svg">
<metadata>Generated by Fontastic.me</metadata>
<defs>
<font id="jv-icons" horiz-adv-x="512">
<font-face font-family="jv-icons" units-per-em="512" ascent="480" descent="-32"/>
<missing-glyph horiz-adv-x="512" />

<glyph glyph-name="frame" unicode="&#98;" d="M405 512l-298 0c-24 0-43-19-43-43l0-426c0-24 19-43 43-43l298 0c24 0 43 19 43 43l0 426c0 24-19 43-43 43z m22-469c0-12-10-22-22-22l-298 0c-12 0-22 10-22 22l0 426c0 12 10 22 22 22l298 0c12 0 22-10 22-22z m-54 405l-234 0c-6 0-11-5-11-11l0-362c0-6 5-11 11-11l234 0c6 0 11 5 11 11l0 362c0 6-5 11-11 11z m-10-363l-214 0 0 342 214 0z m-182 22l150 0c6 0 10 4 10 10l0 11c0 11-3 18-6 23-2 5-4 9-4 20 0 10 2 30 4 52 3 29 6 63 6 86 0 6-4 11-10 11l-77 0c3 6 3 13 3 22 0 1 0 3-1 5l-5 10c-2 3-6 6-10 6l-34 0c-4 0-8-3-10-6l-5-10c-1-2-1-5-1-6 0-10 0-19 5-25-2-6-5-14-9-22-7-14-16-31-16-54 0-22 3-35 6-45 2-8 4-13 4-22 0-9-2-16-5-22-2-7-5-14-5-23l0-11c0-6 4-10 10-10z m135 34c3-4 4-7 4-13l-43 0c0 9-3 17-5 23-2 6-5 13-5 22 0 9 2 14 4 22 3 10 6 23 6 45 0 23-8 40-16 54 0 2-1 3-2 5l61 0c-1-22-4-49-6-74-3-23-5-43-5-54 0-16 4-24 7-30z m-118 60c-3 9-6 20-6 39 0 18 7 31 14 45 6 12 12 23 12 36 0 4-2 7-5 9 0 2-1 5-1 9l1 2 22 0 1-2c0-4-1-7-1-9-3-2-5-5-5-9 0-13 6-24 12-36 7-14 14-27 14-45 0-19-3-30-6-39-2-9-4-16-4-28 0-13 3-22 6-30 2-5 4-9 4-15l-64 0c0 6 2 10 4 15 3 8 6 17 6 30 0 12-2 19-4 28z"/>
<glyph glyph-name="clock-11" unicode="&#99;" d="M469 258c0 118-96 214-213 214-118 0-214-96-214-214 0-72 35-136 89-175l-64-65c-5-4-5-11 0-15 2-2 4-3 7-3 3 0 6 1 8 3l68 68c31-18 67-28 106-28 38 0 74 10 106 28l68-68c2-2 5-3 7-3 3 0 6 1 8 3 4 4 4 11 0 15l-65 65c54 39 89 103 89 175z m-213-194c-106 0-193 87-193 194 0 106 87 193 193 193 106 0 192-87 192-193 0-107-86-194-192-194z m-209 301c22 43 56 78 99 101 3 2 5 5 5 8 1 3 0 6-2 9-16 18-40 29-64 29-47 0-85-38-85-85 0-25 11-49 30-65 2-2 4-3 7-3 1 0 1 0 2 0 3 1 6 3 8 6z m-12 23c-9 11-14 24-14 39 0 35 29 64 64 64 14 0 27-5 38-13-37-22-67-53-88-90z m392 124c-24 0-48-11-64-30-2-2-3-5-2-8 0-4 2-6 5-8 43-23 77-58 99-101 1-3 4-5 7-6 1 0 2 0 2 0 3 0 5 1 7 2 20 17 31 40 31 66 0 47-38 85-85 85z m50-125c-22 37-52 68-88 91 11 8 24 13 38 13 35 0 64-29 64-64 0-15-5-29-14-40z m-139-219c4-4 4-10 0-15-2-2-5-3-8-3-2 0-5 1-7 3l-86 86c-1 2-3 5-3 8 0 0 0 1 0 1l22 151c1 5 6 9 12 9 6-1 10-7 9-12l-21-145z"/>
<glyph glyph-name="american-express" unicode="&#100;" d="M254 308l-14 0 0 12 14 0c2 0 4 0 5-1 2 0 3-2 3-5 0-2-1-4-3-5-1-1-3-1-5-1z m258 97l0-298c0-24-19-43-43-43l-426 0c-24 0-43 19-43 43l0 298c0 24 19 43 43 43l426 0c24 0 43-19 43-43z m-21 0c0 12-10 22-22 22l-426 0c-12 0-22-10-22-22l0-298c0-12 10-22 22-22l426 0c12 0 22 10 22 22z m-141-82l-7-23 15 0z m-47-99l-14 0 0-12 14 0c2 0 4 0 5 1 2 1 3 3 3 5 0 3-1 4-3 5-1 1-3 1-5 1z m-77-39l0 45-17-22 17-23z m-91 82c-3 0-6 2-7 5l-1 4 0 0c0-5-4-9-8-9l-23 0c-4 0-7 2-8 6l-2 6-13 0-3-6c-1-4-4-6-7-6l-12 0c-3 0-6 1-7 4-1 3-2 6-1 9l21 56c1 3 4 5 7 5l17 0c3 0 6-2 7-5l5-12 0 8c0 5 3 9 7 9l19 0c3 0 6-2 7-5l8-19 7 19c1 3 4 5 7 5l19 0c1 0 3 0 4-1 1 1 3 1 4 1l39 0c1 0 2 0 3-1 2 1 3 1 4 1l27 0c7 0 12 0 18-4 0 0 0 0 1-1 1 3 4 5 7 5l12 0c4 0 7-3 7-8 5 6 12 8 22 8l11 0c2 0 3 0 4-2 2 2 3 2 5 2l17 0c3 0 6-2 8-5l4-12 0 8c0 5 3 9 8 9l17 0c3 0 5-1 7-4l5-11 0 6c0 5 4 9 8 9l12 0c4 0 8-4 8-9l0-56c0-5-4-9-8-9l-16 0c-3 0-6 2-7 4l-7 14 0-9c0-5-4-9-8-9l-23 0c-3 0-6 2-8 6l-2 6-13 0-2-6c-2-4-5-6-8-6l-13 0c-5 0-14 1-21 7-1-4-4-7-7-7l-12 0c-1 0-3 0-4 1-1-1-2-1-3-1l-12 0c-4 0-8 4-8 9l0 7 0 1c0 1 0 2 0 3 0 0-1 0-2 0l-4 0 0-11c0-5-4-9-8-9l-12 0c-1 0-2 0-4 1-1-1-2-1-3-1l-39 0c-1 0-3 1-4 2-1-1-3-2-4-2l-12 0c-4 0-8 4-8 9l0 0-1-4c-2-3-4-5-7-5l-11 0z m163 37c0-10 2-17 6-22 4-4 11-6 17-6l13 0 5 13 23 0 5-13 23 0 0 42 22-42 16 0 0 56-12 0 0-39-20 39-17 0 0-53-20 53-17 0-16-44-5 0c-3 0-6 1-8 3-2 3-3 7-3 13 0 6 1 10 3 13 2 2 5 3 9 3l11 0 0 12-11 0c-8 0-14-2-18-6-5-6-6-14-6-22z m24 7l0 0c-3 0-3 0-3-1 0 0-1-2-1-6 0-4 0-6 1-6 0-1 1-1 2-1l5 14-4 0z m-41-35l12 0 0 56-12 0z m-53 0l12 0 0 20 12 0c4 0 7 0 8-2 2-3 2-7 2-11l0-7 12 0 0 11c0 5-1 8-2 10-1 2-3 4-6 5 3 1 8 6 8 15 0 6-2 10-6 12-3 3-8 3-13 3l-27 0 0-56z m-46 0l38 0 0 12-26 0 0 11 26 0 0 11-26 0 0 10 26 0 0 12-38 0 0-56z m-47 0l10 0 17 44 0-44 12 0 0 56-19 0-14-38-15 38-19 0 0-53-19 53-17 0-20-56 12 0 4 13 24 0 5-13 23 0 0 44z m18-52l0-10 25 0 0-11-25 0 0-11 28 0 13 16-12 16z m100 0l-15 0 0-14 15 0c4 0 7 3 7 7 0 5-3 7-7 7z m-182 76l16 0-8 23z m393-84c4-5 5-11 5-18 0-17-9-27-25-27l-23 0c-3 0-6 2-7 5-4-3-10-5-17-5l-22 0c-2 0-3 0-4 1-1-1-2-1-3-1l-38 0c-2 0-3 0-4 1-1-1-2-1-3-1l-12 0c-4 0-8 4-8 9l0 8c0 1 0 2 0 3 0 0-1 0-2 0l-4 0 0-11c0-5-4-9-8-9l-12 0c-4 0-8 4-8 9l0 14c-4-3-9-5-17-5l-6 0 0-9c0-5-4-9-8-9l-22 0c-3 0-5 1-6 3l-9 11-8-11c-2-2-4-3-6-3l-45 0c-5 0-8 4-8 9l0 56c0 5 3 9 8 9l46 0c2 0 4-1 5-3l9-11 8 11c2 2 4 3 6 3l37 0c8 0 13-2 17-5 2 3 4 5 7 5l27 0c6 0 12 0 17-4 1 0 1-1 2-1 1 3 3 5 7 5l38 0c3 0 5-2 6-5 4 3 9 5 16 5l22 0c4 0 7-3 8-6 4 4 9 6 16 6l23 0c4 0 8-4 8-9l0-12c0-3-1-6-4-8 0 0 1 0 1 0z m-192 1c0 16-10 19-19 19l-37 0-14-18-14 18-46 0 0-56 45 0 14 18 15-18 22 0 0 19 14 0c10 0 20 3 20 18z m43-11c3 1 8 6 8 15 0 6-2 10-6 12-3 3-8 3-13 3l-27 0 0-56 12 0 0 20 12 0c4 0 7 0 8-2 2-3 2-8 2-11l0-7 12 0 0 11c0 5-1 7-2 10-1 2-3 4-6 5z m53 30l-38 0 0-56 38 0 0 12-27 0 0 11 26 0 0 11-26 0 0 10 27 0z m47-38c0 5-1 9-4 11-2 3-7 5-13 5l-6 0c-2 0-3 0-4 1-2 0-3 2-3 4 0 2 1 3 2 4 1 1 2 1 5 1l20 0 0 12-22 0c-12 0-17-9-17-17 0-18 14-17 24-17 2 0 3-1 4-1 1-1 2-2 2-4 0-2-1-3-2-4-1-1-2-1-4-1l-22 0 0-12 22 0c11 0 18 6 18 18z m46 0c0 5-1 9-3 11-3 3-7 5-13 5l-6 0c-2 0-3 0-5 1-1 0-2 2-2 4 0 2 0 3 2 4 1 1 2 1 4 1l21 0 0 12-23 0c-12 0-16-9-16-17 0-18 13-17 24-17 2 0 3-1 4-1 1-1 1-2 1-4 0-2 0-3-1-4-1-1-2-1-5-1l-22 0 0-12 23 0c11 0 17 6 17 18z"/>
<glyph glyph-name="bag-return" unicode="&#101;" d="M437 384l-53 0 0 44c0 22-9 44-24 60-16 15-38 24-59 24l-89 0c-22 0-44-9-60-24-15-16-24-38-24-60l0-44-53 0c-6 0-11-5-11-11l0-330c0-24 19-43 43-43l298 0c24 0 43 19 43 43l0 330c0 6-5 11-11 11z m-74 44l0-44-22 0 0 91c1-1 3-2 3-3 12-11 19-27 19-44z m-171-44l0 64 128 0 0-64z m109 107c6 0 13-2 19-4l0-18-128 0 0 18c6 2 13 4 20 4z m-152-63c0 17 7 33 19 44 1 1 2 2 3 3l0-91-22 0 0 45z m278-385c0-12-10-22-22-22l-298 0c-12 0-22 10-22 22l0 320 342 0z m-67 125c4-5 4-11 0-16l-43-42c-1-1-2-2-4-3-1 0-2 0-4 0-1 0-2 0-4 0-1 1-2 2-3 3l-43 42c-4 5-4 11 0 16 4 4 11 4 15 0l25-25 0 70c0 24-19 43-43 43-24 0-43-19-43-43l0-96c0-6-4-10-10-10-6 0-11 4-11 10l0 96c0 36 29 64 64 64 35 0 64-28 64-64l0-70 24 25c5 4 11 4 16 0z"/>
<glyph glyph-name="bag-5" unicode="&#102;" d="M437 384l-53 0 0 44c0 22-9 44-24 60-16 15-38 24-59 24l-89 0c-22 0-44-9-60-24-15-16-24-38-24-60l0-44-53 0c-6 0-11-5-11-11l0-330c0-24 19-43 43-43l298 0c24 0 43 19 43 43l0 330c0 6-5 11-11 11z m-74 44l0-44-22 0 0 91c1-1 3-2 3-3 12-11 19-27 19-44z m-171-44l0 64 128 0 0-64z m109 107c6 0 13-2 19-4l0-18-128 0 0 18c6 2 13 4 20 4z m-152-63c0 17 7 33 19 44 1 1 2 2 3 3l0-91-22 0 0 45z m278-385c0-12-10-22-22-22l-298 0c-12 0-22 10-22 22l0 320 342 0z"/>
<glyph glyph-name="bar-2" unicode="&#103;" d="M315 162c50 29 133 88 133 169 0 103-42 173-44 176-2 3-6 5-9 5l-278 0c-3 0-7-2-9-5-2-3-44-73-44-176 0-81 83-140 133-169 10-6 16-16 16-28l0-54c0-12-6-23-17-29l-62-31c-5-2-7-7-6-12 1-5 6-8 11-8l234 0c5 0 10 3 11 8 1 5-1 10-6 12l-62 31c-11 6-17 17-17 29l0 54c0 12 6 22 16 28z m-8-130l21-11-144 0 21 11c18 9 30 27 30 48l0 54c0 19-11 37-27 47-37 21-123 77-123 150 0 81 29 142 39 160l264 0c10-18 39-78 39-160 0-73-86-129-123-150-16-10-27-28-27-47l0-54c0-21 12-39 30-48z m98 299c0 6-4 11-10 11-65 1-99 11-136 20-36 10-73 20-138 22-6-1-11-4-11-10-2-14-3-29-3-43 0-61 78-113 112-132 11-7 24-10 37-10 13 0 26 3 38 10 33 19 111 71 111 132z m-176-113c-49 28-101 72-101 113 0 10 1 20 2 31 56-3 89-11 123-20 35-9 70-19 130-21-7-38-55-78-100-104-17-9-37-9-54 1z"/>
<glyph glyph-name="bucket-2" unicode="&#104;" d="M501 299l-23 0-25 115c-4 20-22 34-42 34l-48 0 0 11c0 6-5 10-11 10l-192 0c-6 0-11-4-11-10l0-11-48 0c-20 0-38-14-42-34l-25-115-23 0c-6 0-11-5-11-11 0-6 5-11 11-11l23 0 46-201c4-20 21-33 42-33l268 0c20 0 38 13 42 33l46 201 23 0c6 0 11 5 11 11 0 6-5 11-11 11z m-330 149l170 0 0-21-170 0z m-91-38c2 10 11 17 21 17l48 0 0-11c0-6 5-11 11-11l192 0c6 0 11 5 11 11l0 11 49 0c9 0 18-7 20-17l24-111-400 0 24 111z m331-329c-2-10-11-17-21-17l-268 0c-10 0-19 7-21 17l-45 196 400 0z m-304 143c0 6 4 11 10 11l278 0c6 0 10-5 10-11 0-6-4-11-10-11l-278 0c-6 0-10 5-10 11z m288-53c0-6-5-11-11-11l-256 0c-6 0-11 5-11 11 0 6 5 10 11 10l256 0c6 0 11-4 11-10z m-11-54c0-6-5-10-11-10l-234 0c-6 0-11 4-11 10 0 6 5 11 11 11l234 0c6 0 11-5 11-11z"/>
<glyph glyph-name="bathrobe" unicode="&#105;" d="M409 451c-3 23-20 41-43 45-37 8-87 16-110 16l0 0c-23 0-73-8-110-16-23-4-40-22-43-45l-39-290c0-3 1-6 3-8 2-2 5-4 8-4l32 0 0-128c0-5 3-9 8-10 2-1 53-11 141-11 89 0 141 21 143 22 4 2 6 6 6 10l0 117 32 0c3 0 6 2 8 4 2 2 3 5 3 8z m-153-126c-19 46-43 106-43 123 0 24 19 43 43 43l0 0c24 0 43-19 43-43 0-17-24-77-43-123z m-132 123c2 14 12 25 26 27 20 4 38 7 54 10-8-11-12-23-12-37 0-29 42-126 52-150l-30-81c0-1-1-2-1-4l-44 0 23 137c1 6-3 12-9 13-6 1-11-3-12-9l-31-183-53 0 37 277z m4-299l21 0c6 0 10 4 11 9l5 34 35 0c-13-17-29-44-29-75 0-6 4-10 10-10 6 0 11 4 11 10 0 22 11 42 21 57l0-152c-42 2-71 6-85 8z m256-110c-16-5-61-18-128-18-7 0-14 0-21 1l0 148c10-16 21-37 21-53 0-6 5-10 11-10 6 0 10 4 10 10 0 26-18 56-31 75l101 0 5-34c1-5 5-9 11-9l21 0z m-12 132l-31 183c-1 6-6 10-12 9-6-1-10-7-9-13l23-137-108 0 31 82c6 13 54 122 54 153 0 14-4 26-12 37 16-3 34-6 54-10 14-2 24-13 26-27l37-277-53 0z"/>
<glyph glyph-name="bathroom" unicode="&#106;" d="M96 405c29 0 53 24 53 54 0 29-24 53-53 53-29 0-53-24-53-53 0-30 24-54 53-54z m0 86c18 0 32-15 32-32 0-18-14-32-32-32-18 0-32 14-32 32 0 17 14 32 32 32z m53-107l-106 0c-24 0-43-19-43-43l0-106c0-24 19-43 43-43l1 0 9-182c1-6 5-10 11-10l64 0c6 0 10 4 11 10l9 182 1 0c24 0 43 19 43 43l0 106c0 24-19 43-43 43z m22-149c0-12-10-22-22-22l-11 0c-6 0-11-4-11-10l-9-182-44 0-9 182c0 6-5 10-11 10l-11 0c-12 0-22 10-22 22l0 106c0 12 10 22 22 22l106 0c12 0 22-10 22-22l0-106z m245 170c29 0 53 24 53 54 0 29-24 53-53 53-29 0-53-24-53-53 0-30 24-54 53-54z m0 86c18 0 32-15 32-32 0-18-14-32-32-32-18 0-32 14-32 32 0 17 14 32 32 32z m71-296c14 5 25 20 25 36 0 3 0 6-1 9l-26 111c-4 19-21 33-41 33l-56 0c-20 0-37-14-41-33l-26-111c-1-3-1-6-1-9 0-16 11-31 25-36l-24-74c-2-4-1-7 1-10 2-3 5-4 9-4l37 0 5-97c1-6 5-10 11-10l64 0c6 0 10 4 11 10l5 97 37 0c4 0 7 1 9 4 2 3 3 6 1 10l-24 74z m-33-67c-6 0-10-4-11-10l-5-97-44 0-5 97c-1 6-5 10-11 10l-32 0 24 71c1 4 0 7-2 10-2 3-5 4-9 4-10 0-18 8-18 18 0 2 1 3 1 5l25 110c3 10 11 17 21 17l56 0c10 0 18-7 21-17l25-111c1-1 1-2 1-4 0-10-8-18-18-18-4 0-7-1-9-4-2-3-3-6-1-10l24-71z m-198-64c-12 0-21-10-21-21 0-12 9-22 21-22 12 0 21 10 21 22 0 11-9 21-21 21z m0-21l0 0 11 0z m0 106c-12 0-21-9-21-21 0-12 9-21 21-21 12 0 21 9 21 21 0 12-9 21-21 21z m0-21l0 0 11 0z m0 107c-12 0-21-10-21-22 0-11 9-21 21-21 12 0 21 10 21 21 0 12-9 22-21 22z m0-22l0 0 11 0z m0 107c-12 0-21-10-21-21 0-12 9-22 21-22 12 0 21 10 21 22 0 11-9 21-21 21z m0-21l0 0 11 0z m0 106c-12 0-21-9-21-21 0-12 9-21 21-21 12 0 21 9 21 21 0 12-9 21-21 21z m0-21l0 0 11 0z m0 107c-12 0-21-10-21-22 0-11 9-21 21-21 12 0 21 10 21 21 0 12-9 22-21 22z m0-22l0 0 11 0z"/>
<glyph glyph-name="breakfast" unicode="&#107;" d="M469 427l-85 0 0 4c0 21-16 39-37 42l-290 39c-2 0-4 0-6 0l-8 0c-24 0-43-19-43-43 0-9 3-18 9-25l51-68c-39-42-60-95-60-152 0-91 55-170 133-205-3-1-5-5-5-8 0-6 5-11 11-11l170 0c6 0 11 5 11 11 0 3-2 7-5 8 78 35 133 114 133 205 0 59-23 114-64 156l0 25 85 0c12 0 22-9 22-21l0-160c0-6 4-11 10-11 6 0 11 5 11 11l0 160c0 24-19 43-43 43z m-448 42c0 12 10 22 22 22l8 0c1 0 2 0 3-1l290-38c11-2 19-11 19-21l0-47-283 0-54 73c-3 3-5 8-5 12z m203-448c-112 0-203 91-203 203 0 52 20 101 55 139l296 0c35-38 55-87 55-139 0-112-91-203-203-203z m-159 151c-3-1-7-2-8-5-2-3-3-7-1-10 27-69 93-114 168-114 100 0 181 81 181 181 0 7 0 15-1 22-1 5-5 10-11 9-83-3-129-23-173-43-43-18-83-36-155-40z m319 62c0-4 0-7 0-10 0-88-72-160-160-160-61 0-115 34-142 87 66 6 107 24 147 42 42 19 82 36 155 41z"/>
<glyph glyph-name="car-rental" unicode="&#109;" d="M149 341c28 0 54 14 70 37l20-14c4-2 8-2 11 0 4 2 6 5 6 9l0 11 28 0 18-18c4-4 11-4 15 0l14 14 13-14c5-4 11-4 16 0l13 14 14-14c4-4 11-4 15 0l43 42c4 5 4 11 0 16l-43 42c-2 2-4 3-7 3l-172 0c-15 27-43 43-74 43-47 0-85-38-85-85 0-47 38-86 85-86z m0 150c25 0 47-14 58-37 2-4 5-6 10-6l173 0 32-32-27-28-14 14c-4 4-11 4-15 0l-14-14-14 14c-4 4-11 4-15 0l-14-14-13 14c-2 2-5 3-8 3l-43 0c-5 0-10-4-10-10l0-2-13 9c-3 2-6 2-9 1-3 0-5-2-7-5-11-22-33-35-57-35-35 0-64 28-64 64 0 35 29 64 64 64z m-21-86c12 0 21 10 21 22 0 11-9 21-21 21-12 0-21-10-21-21 0-12 9-22 21-22z m0 22z m287-239l-25 100c-5 19-22 32-42 32l-184 0c-20 0-37-13-42-32l-25-100c-19-8-33-27-33-49l0-43c0-17 8-33 21-42 0-1 0-1 0-1l0-10c0-24 19-43 43-43 24 0 43 19 43 43l170 0c0-24 19-43 43-43 24 0 43 19 43 43l0 10c0 0 0 0 0 1 13 9 21 25 21 42l0 43c0 22-14 41-33 49z m-272 95c2 9 11 16 21 16l184 0c10 0 19-7 21-16l23-91-272 0 23 91z m-15-262c-12 0-21 10-21 22l42 0c0-12-9-22-21-22z m277 22c0-12-9-22-21-22-12 0-21 10-21 22z m22 53c0-18-15-32-32-32l-278 0c-17 0-32 14-32 32l0 43c0 17 15 32 32 32l278 0c17 0 32-15 32-32z m-288 53c-18 0-32-14-32-32 0-17 14-32 32-32 17 0 32 15 32 32 0 18-15 32-32 32z m0-42c-6 0-11 4-11 10 0 6 5 11 11 11 6 0 10-5 10-11 0-6-4-10-10-10z m234 42c-17 0-32-14-32-32 0-17 15-32 32-32 18 0 32 15 32 32 0 18-14 32-32 32z m0-42c-6 0-10 4-10 10 0 6 4 11 10 11 6 0 11-5 11-11 0-6-5-10-11-10z m-53 32c0-6-5-11-11-11l-106 0c-6 0-11 5-11 11 0 6 5 10 11 10l106 0c6 0 11-4 11-10z m0-43c0-6-5-11-11-11l-106 0c-6 0-11 5-11 11 0 6 5 11 11 11l106 0c6 0 11-5 11-11z"/>
<glyph glyph-name="cart" unicode="&#110;" d="M186 192l211 0c22 0 42 14 50 35l63 170c1 4 2 9 2 13 0 21-17 38-38 38l-352 0-7 25c-6 23-28 39-51 39l-53 0c-6 0-11-5-11-11 0-6 5-10 11-10l53 0c14 0 27-10 31-24l74-261-50-51c-8-8-12-18-12-29 0-22 18-41 40-41l333 0c6 0 11 5 11 11 0 6-5 11-11 11l-333 0c-10 0-19 8-19 19 0 5 2 10 6 14l52 52z m288 235c9 0 17-8 17-17 0-2-1-4-1-6l-63-170c-5-12-17-21-30-21l-208 0-61 214 346 0z m-69-384c0-24 19-43 43-43 24 0 43 19 43 43 0 23-19 42-43 42-24 0-43-19-43-42z m43 21c12 0 21-10 21-21 0-12-9-22-21-22-12 0-21 10-21 22 0 11 9 21 21 21z m-320-21c0-24 19-43 43-43 23 0 42 19 42 43 0 23-19 42-42 42-24 0-43-19-43-42z m43 21c11 0 21-10 21-21 0-12-10-22-21-22-12 0-22 10-22 22 0 11 10 21 22 21z m21 309c0 6 5 11 11 11l224 0c6 0 10-5 10-11 0-6-4-10-10-10l-224 0c-6 0-11 4-11 10z m213-53c0-6-4-11-10-11l-182 0c-6 0-10 5-10 11 0 6 4 11 10 11l182 0c6 0 10-5 10-11z m-10-53c0-6-5-11-11-11l-160 0c-6 0-11 5-11 11 0 6 5 10 11 10l160 0c6 0 11-4 11-10z"/>
<glyph glyph-name="bell-3" unicode="&#111;" d="M267 314c0-6-5-11-11-11-49 0-92-33-103-81-1-5-6-9-11-9 0 0-1 0-2 1-6 1-9 7-8 12 14 58 65 98 124 98 6 0 11-4 11-10z m245-202l0-5c0-24-19-43-43-43l-426 0c-24 0-43 19-43 43l0 5c0 20 8 39 22 53l11 11c9 9 19 14 31 15l0 1c0 91 64 168 149 187l0 37c0 18 15 32 32 32l22 0c17 0 32-14 32-32l0-37c85-19 149-96 149-187l0-1c12-1 22-6 31-15l11-11c14-14 22-33 22-53z m-277 271c7 1 14 1 21 1 7 0 14 0 21-1l0 33c0 6-4 11-10 11l-22 0c-6 0-10-5-10-11z m-150-191l342 0c0 94-77 171-171 171-94 0-171-77-171-171z m406-80c0 14-6 28-16 38l-11 11c-6 6-15 10-23 10l-370 0c-8 0-17-4-23-10l-11-11c-10-10-16-24-16-38l0-5c0-12 10-22 22-22l426 0c12 0 22 10 22 22z m-235 16l-203 0c-6 0-10-5-10-11 0-6 4-10 10-10l203 0c6 0 11 4 11 10 0 6-5 11-11 11z"/>
<glyph glyph-name="scissors" unicode="&#112;" d="M169 400c-8 32-45 68-87 68-15 0-28-5-35-14-3-5-4-9-4-14 0-3 0-6 1-10 8-32 46-68 87-68 17 0 31 6 37 17 2 3 4 9 1 21z m-38-17c-30 0-60 28-66 52-1 2-1 4-1 6 2 2 7 6 18 6 30 0 61-28 67-52 1-4 0-6 0-6-1-2-7-6-18-6z m0-234c-41 0-79-36-87-68-1-4-1-7-1-10 0-5 1-10 4-14 7-9 20-14 35-14 42 0 79 36 87 68 3 12 1 18-1 21-6 11-20 17-37 17z m18-33c-6-24-37-52-67-52-11 0-16 4-18 7 0 1 0 2 1 5 6 24 36 52 66 52 11 0 17-4 18-6 0 0 1-2 0-6z m164 143l195 170c3 2 4 4 4 8 0 3-1 6-4 8-29 26-70 28-101 4l-190-144c-2-1-10-3-18 1-7 4-11 11-14 22 24 19 34 51 25 86-15 54-72 98-128 98-24 0-46-8-61-24-14-14-21-34-21-55 0-8 1-17 3-25 14-50 66-78 109-87 21-23 39-53 46-65-8-11-27-40-46-65-54-7-96-41-108-87-3-8-4-17-4-25 0-21 7-41 21-55 15-16 37-24 61-24 56 0 113 44 128 98 9 34-1 67-25 86 2 8 6 13 11 15 11 5 27-1 33-4l178-132c15-11 32-17 48-17 19 0 38 7 53 21 3 2 4 5 4 8l0 0c0 3-1 6-4 8l-195 176z m-194 82c-39 8-84 33-95 73-2 6-3 13-3 19 0 16 5 30 16 40 11 12 27 18 45 18 47 0 95-37 107-83 8-28 0-53-22-67-3-2-5-5-5-9 0 0 0-1 0-2 4-21 13-35 27-42 1-1 2-2 3-2l-18-14c-9 15-28 43-49 66-1 2-3 3-6 3z m68-122c-13-7-21-19-25-37 0-5 2-9 5-11 22-14 30-39 22-67-12-46-60-83-107-83-18 0-34 6-45 18-11 10-16 24-16 40 0 6 1 13 3 19 11 39 48 68 95 73 2 0 5 1 7 4 23 29 47 65 53 74l241 183c0 0 0 0 0 0 20 15 44 17 64 4l-251-219c-10 4-29 9-46 2z m233-139l-168 125 45 39 188-168c-21-13-45-12-65 4z m-4 176c6 0 11-5 11-11 0-6-5-10-11-10l-21 0c-6 0-11 4-11 10 0 6 5 11 11 11z m96-11c0-6-5-10-11-10l-21 0c-6 0-11 4-11 10 0 6 5 11 11 11l21 0c6 0 11-5 11-11z"/>
<glyph glyph-name="credit-card-7" unicode="&#113;" d="M395 256c-12 0-23-4-32-11-10 7-21 11-32 11-30 0-54-24-54-53 0-30 24-54 54-54 11 0 22 4 32 11 9-7 20-11 32-11 29 0 53 24 53 54 0 29-24 53-53 53z m0-85c-9 0-18 4-24 11-2 2-5 3-8 3-3 0-6-1-8-3-6-7-15-11-24-11-18 0-32 14-32 32 0 17 14 32 32 32 9 0 18-4 24-11 4-5 12-5 16 0 6 7 15 11 24 11 17 0 32-15 32-32 0-18-15-32-32-32z m74 277l-426 0c-24 0-43-19-43-43l0-298c0-24 19-43 43-43l426 0c24 0 43 19 43 43l0 298c0 24-19 43-43 43z m-448-85l470 0 0-43-470 0z m22 64l426 0c12 0 22-10 22-22l0-21-470 0 0 21c0 12 10 22 22 22z m426-342l-426 0c-12 0-22 10-22 22l0 192 470 0 0-192c0-12-10-22-22-22z m-234 96c0-6-5-10-11-10l-149 0c-6 0-11 4-11 10 0 6 5 11 11 11l149 0c6 0 11-5 11-11z m-171 43c0 6 5 11 11 11l106 0c6 0 11-5 11-11 0-6-5-11-11-11l-106 0c-6 0-11 5-11 11z"/>
<glyph glyph-name="delta-credit-card" unicode="&#114;" d="M469 448l-426 0c-24 0-43-19-43-43l0-298c0-24 19-43 43-43l426 0c24 0 43 19 43 43l0 298c0 24-19 43-43 43z m-448-264l58-35-58 0z m28 8l164 0 0-98z m58-64l0-34-58 34z m21-8l57-35-57 0z m107 64l164-99-164 0z m-214 29l0 99 164-99z m0-106l0 13 58-35-36 0c-12 0-22 10-22 22z m470 0c0-12-10-22-22-22l-29 0-419 252 0 68c0 12 10 22 22 22l426 0c12 0 22-10 22-22z m-256 188l28 0 0-14-46 0 0 53 45 0 0-14-27 0 0-6 25 0 0-13-25 0 0-6z m98 0c0-5 0-10 0-14l-41 0 0 53 17 0 0-39z m16 39l47 0 0-14-15 0 0-39-17 0c0 13 0 25 0 38l-15 0z m101-2c0 2-1 2-2 2l0 0c-2 0-5 0-7 0-2 0-4 0-6 0l0 0c-2 0-2-1-3-2-1-3-2-5-3-8-4-11-8-22-12-33-1-3-3-7-4-10l7 0c3 0 6 0 9 0 1 0 2 0 2 1 1 2 1 4 2 6l6 0c3 0 6 0 9 0 0 0 1-1 2-1 0-2 0-4 1-5 0-1 1-1 2-1 3 0 6 0 9 0l7 0c0 1 0 1 0 2-6 16-13 33-19 49z m-13-32c1 5 3 9 4 14 2-5 3-9 5-14z m-261 32c-4 1-9 2-13 2-3 0-6 0-10 0-4 0-9 0-14 0l-2 0 0-53 3 0c4 0 9-1 13-1 3 0 6 0 9 1 3 0 6 0 9 1 6 1 12 5 15 11 3 8 4 16 2 23-2 7-6 13-12 16z m-7-33c-2-4-7-4-11-4-1 0-2 0-3 0l-1 0 0 24c2 0 3 1 5 1 4 0 8-1 10-6 3-4 3-10 0-15z"/>
<glyph glyph-name="disabled-1" unicode="&#115;" d="M332 56c4-4 3-11-1-15-30-26-68-41-107-41-88 0-160 72-160 160 0 44 19 87 51 117 4 4 11 4 15-1 4-4 4-11 0-15-29-26-45-62-45-101 0-76 63-139 139-139 34 0 67 13 93 36 4 4 11 4 15-1z m-195 166c-5 3-11 1-14-4-11-18-16-38-16-58 0-65 52-117 117-117 34 0 67 15 90 42 3 5 3 11-2 15-4 4-11 3-15-1-18-22-45-35-73-35-53 0-96 43-96 96 0 16 4 33 13 48 3 5 1 11-4 14z m311-140c-1-3-3-5-6-7l-54-29c-5-2-10-3-15-3-3 0-7 0-11 1-8 3-15 10-18 18l-46 124c-2 3-6 6-10 6l-54 0c-36 0-67 26-74 61l-26 126c-17 15-27 36-27 58 0 41 33 75 74 75 42 0 75-34 75-75 0-33-22-61-53-71l6-25 79 0c18 0 32-14 32-32 0-17-14-32-32-32l-66 0 2-12c1-5 6-9 11-9l53 0c30 0 57-18 69-45l37-95c18 4 38-3 48-20l4-5c1-2 2-4 2-6 0-1 0-2 0-3z m-26 6c-8 8-20 10-30 5-2-1-5-1-8 0-3 1-5 3-7 6l-40 104c-8 19-28 32-49 32l-53 0c-15 0-29 11-32 26l-4 25c-1 1-1 1-1 2 0 3 1 5 3 7 2 2 5 4 8 4l79 0c6 0 11 4 11 10 0 6-5 11-11 11l-87 0c-5 0-10 3-11 8l-10 44c0 1 0 1 0 2 0 3 0 5 2 6 1 3 4 4 7 5 26 4 46 26 46 52 0 30-24 54-54 54-29 0-53-24-53-54 0-17 8-33 22-43 2-1 4-4 4-6l27-131c5-25 27-44 53-44l54 0c13 0 24-7 30-19l46-124c1-2 3-4 6-5 3-1 6-1 8 0l44 23z"/>
<glyph glyph-name="discover-credit-card" unicode="&#116;" d="M175 265c0-13-9-22-22-22-10 0-17 4-23 13l8 8c3-6 8-9 14-9 6 0 10 4 10 9 0 3-1 5-4 7-1 1-4 2-9 4-11 4-16 9-16 18 0 10 9 18 21 18 7 0 13-2 19-7l-7-9c-3 4-6 6-10 6-6 0-10-4-10-8 0-3 3-5 10-8 15-5 19-10 19-20z m-68 13c0-10-5-19-12-26-6-5-13-7-23-7l-19 0 0 65 19 0c21 0 35-13 35-32z m-13 0c0 6-3 12-7 16-4 4-9 5-18 5l-3 0 0-43 3 0c9 0 14 2 18 5 4 4 7 10 7 17z m19-33l12 0 0 65-12 0z m399 160l0-298c0-24-19-43-43-43l-426 0c-24 0-43 19-43 43l0 298c0 24 19 43 43 43l426 0c24 0 43-19 43-43z m-21-204c-41-30-115-77-220-116l198 0c12 0 22 10 22 22z m0 204c0 12-10 22-22 22l-426 0c-6 0-11-3-15-7-4-4-7-9-7-15l0-298c0-12 10-22 22-22l158 0c151 44 249 112 290 143z m-312-127c0-20 15-35 34-35 6 0 10 1 16 4l0 15c-5-5-9-7-15-7-13 0-22 9-22 23 0 12 9 22 21 22 6 0 11-2 16-7l0 15c-5 3-10 4-15 4-20 0-35-15-35-34z m188-33l36 0 0 11-23 0 0 18 22 0 0 11-22 0 0 14 23 0 0 11-36 0z m71 27l21-27-16 0-18 26-1 0 0-26-13 0 0 65 19 0c15 0 23-7 23-19 0-10-5-17-15-19z m2 18c0 7-4 10-12 10l-4 0 0-20 4 0c8 0 12 4 12 10z m-110-24l-18 44-13 0 27-67 7 0 28 67-14 0z m-27 11c0-19-16-34-35-34-19 0-35 15-35 34 0 20 16 35 35 35 19 0 35-15 35-35z m-22 0c0 8-6 14-13 14-7 0-13-6-13-14 0-7 6-13 13-13 7 0 13 6 13 13z"/>
<glyph glyph-name="dollar-currency" unicode="&#117;" d="M222 424c-54-9-94-39-94-72 0-32 31-54 94-68 0 0 1 0 2 0 3 0 5 1 7 2 2 2 4 5 4 8l0 119c0 3-2 6-4 8-2 2-6 3-9 3z m-9-116c-31 8-64 22-64 44 0 17 24 38 64 48z m86-16l0 108c38-9 62-30 64-46 0-3 2-5 4-7 2-2 5-3 8-3l63 7c6 0 10 5 10 11-6 62-67 112-149 125l0 14c0 6-5 11-11 11l-64 0c-6 0-11-5-11-11l0-14c-88-14-149-68-149-135 0-47 26-107 149-132l0-108c-38 9-62 30-64 46 0 6-6 10-12 10l-63-7c-3 0-6-1-7-3-2-2-3-5-3-7 0-1 0-1 0-1 6-62 67-112 149-125l0-14c0-6 5-11 11-11l64 0c6 0 11 5 11 11l0 14c88 14 149 68 149 135 0 47-26 107-149 132z m-12-247c-6-1-10-6-10-11l0-13-42 0 0 13c0 5-4 10-10 11-72 8-127 47-138 96l43 4c10-26 46-49 92-57 3 0 7 1 9 3 2 2 4 5 4 8l0 130c0 5-4 9-9 10-93 18-141 56-141 113 0 57 59 106 140 115 6 1 10 6 10 11l0 13 42 0 0-13c0-5 4-10 10-11 72-8 127-47 138-96l-43-4c-10 26-46 49-92 57-3 0-7-1-9-3-2-2-4-5-4-8l0-130c0-5 4-9 9-10 93-18 141-55 141-113 0-57-59-105-140-115z m3 183c-3 1-6 0-9-2-2-2-4-5-4-8l0-119c0-3 2-6 4-8 2-2 4-3 7-3 1 0 1 0 2 0 54 9 94 39 94 72 0 32-32 55-94 68z m9-116l0 92c28-7 64-21 64-44 0-17-24-38-64-48z"/>
<glyph glyph-name="dumbbell" unicode="&#118;" d="M469 384l-21 0 0 21c0 24-19 43-43 43l-32 0c-6 0-10-5-10-11l0-138-214 0 0 138c0 6-4 11-10 11l-32 0c-24 0-43-19-43-43l0-21-21 0c-24 0-43-19-43-43l0-170c0-24 19-43 43-43l21 0 0-21c0-24 19-43 43-43l32 0c6 0 10 5 10 11l0 138 214 0 0-138c0-6 4-11 10-11l32 0c24 0 43 19 43 43l0 21 21 0c24 0 43 19 43 43l0 170c0 24-19 43-43 43z m-426-235c-12 0-22 10-22 22l0 170c0 12 10 22 22 22l21 0 0-214z m85-64l-21 0c-12 0-22 10-22 22l0 298c0 12 10 22 22 22l21 0z m21 150l0 42 214 0 0-42z m278-128c0-12-10-22-22-22l-21 0 0 342 21 0c12 0 22-10 22-22z m64 64c0-12-10-22-22-22l-21 0 0 214 21 0c12 0 22-10 22-22z"/>
<glyph glyph-name="free-toiletries" unicode="&#119;" d="M384 250l0 59c0 38-28 69-64 74l0 54c0 6-5 11-11 11l-10 0 0 32 10 0c6 0 11 5 11 11 0 6-5 10-11 10l-82 0c-7 3-25 11-46 11-25 0-47-12-47-12-6-3-8-9-5-14 3-6 10-8 15-5 0 0 17 10 37 10 14 0 27-5 33-7 0-2-1-3-1-4l0-32-10 0c-6 0-11-5-11-11l0-54c-36-5-64-36-64-74l0-59c-41-37-64-89-64-143l0-64c0-24 19-43 43-43l298 0c24 0 43 19 43 43l0 64c0 54-23 106-64 143z m-149 230l42 0 0-32-42 0z m64-53l0-43-86 0 0 43z m128-384c0-12-10-22-22-22l-298 0c-12 0-22 10-22 22l0 64c0 50 22 97 61 130 2 2 3 5 3 8l0 64c0 30 24 54 54 54l106 0c30 0 54-24 54-54l0-64c0-3 1-6 3-8 39-33 61-80 61-130z m-214 266l0-94c0-3-1-6-3-8l-23-19c-24-20-38-50-38-81l0-32c0-6-4-11-10-11-6 0-11 5-11 11l0 32c0 37 16 73 45 97l19 16 0 89c0 6 5 11 11 11 6 0 10-5 10-11z"/>
<glyph glyph-name="gavel" unicode="&#120;" d="M330 232c2-2 4-3 7-3 3 0 6 1 8 3 6 6 18 1 18-8 0-2-1-5-3-7-2-2-3-5-2-8 0-3 2-6 5-8 24-15 56-10 76 9l55 56c12 11 18 27 18 44 0 11-3 22-9 32-1 2-4 4-7 5-3 0-7-1-9-3-7-6-17 0-17 8 0 3 1 6 3 8 4 4 4 11 0 15l-98 98c-2 2-5 3-8 3-3 0-5-1-7-3-6-6-18-1-18 7 0 3 0 5 2 7 2 2 3 6 3 9-1 3-3 5-5 7-25 15-57 11-76-9l-56-55c-11-12-18-28-18-44 0-11 3-22 9-32 2-3 5-5 8-5 3-1 6 0 8 2 8 6 18 0 18-8 0-3-1-5-3-7-4-5-4-11 0-15l28-29-247-231c-8-8-13-18-13-30 0-22 18-40 40-40 12 0 22 5 30 13l231 247 29-28z m-37 51l-239-256c-3-3-8-6-14-6-10 0-19 9-19 19 0 6 3 11 7 14l255 239c2 2 3 4 3 7 0 3-1 6-3 8l-30 30c2 5 3 9 3 14 0 18-14 32-32 32l0 0c-3 0-6 0-9-1-1 4-2 8-2 12 0 11 5 21 12 29l56 55c10 11 26 15 40 10 0-3-1-6-1-9l0 0c0-17 14-32 32-32 5 0 10 1 14 3l85-85c-2-4-3-9-3-14 0-17 15-32 32-32 3 0 6 1 9 1 1-3 2-7 2-11 0-11-4-22-12-29l-55-56c-11-10-27-14-41-10 1 3 1 6 1 9l0 0c0 18-14 32-32 32-5 0-9-1-14-3l-30 30c-2 2-5 4-8 3-3 0-5-1-7-3z m177-198l-193 0c-23 0-42-19-42-42 0-24 19-43 42-43l193 0c23 0 42 19 42 43 0 23-19 42-42 42z m0-64l-193 0c-11 0-21 10-21 22 0 11 10 21 21 21l193 0c11 0 21-10 21-21 0-12-10-22-21-22z"/>
<glyph glyph-name="gift-3" unicode="&#121;" d="M480 427l-87 0c8 9 12 20 12 32 0 29-27 53-61 53-43 0-74-28-88-55-14 27-45 55-88 55-34 0-61-24-61-53 0-12 4-23 12-32l-87 0c-18 0-32-15-32-32l0-43c0-14 9-26 21-30l0-279c0-24 19-43 43-43l384 0c24 0 43 19 43 43l0 279c12 4 21 16 21 30l0 43c0 17-14 32-32 32z m-202 25c5 9 27 39 66 39 22 0 40-15 40-32 0-18-18-32-40-32l-75 0c0 3 1 12 9 25z m-43-111l0 64 42 0 0-64z m42-21l0-299-42 0 0 299z m-149 139c0 17 18 32 40 32 39 0 61-30 66-39 9-15 10-25 10-25l-76 0c-22 0-40 14-40 32z m-107-64c0 6 5 10 11 10l181 0 0-64-181 0c-6 0-11 5-11 11z m22-352l0 277 170 0 0-299-149 0c-12 0-21 10-21 22z m426 0c0-12-9-22-21-22l-149 0 0 299 170 0z m22 309c0-6-5-11-11-11l-181 0 0 64 181 0c6 0 11-4 11-10z"/>
<glyph glyph-name="globe-7" unicode="&#122;" d="M384 478c-122 70-279 28-350-94-70-122-28-279 94-350 40-23 84-34 128-34 88 0 174 46 222 128 70 122 28 279-94 350z m106-234l-89 51c18 57 20 108 5 141 58-48 88-120 84-192z m-346-182c-32 19-35 81-11 154l150-86c-17-19-34-34-51-47-35-25-67-33-88-21z m-3 174c8 23 19 45 32 68 15 26 31 49 49 70l153-88c-9-26-21-52-36-78-13-22-27-43-42-62l-156 90z m96 154c14 15 28 28 43 39 24 17 47 26 66 26 8 0 16-1 22-5 31-18 34-75 14-144l-145 84z m99 86c-20-2-44-12-69-30-16-12-33-27-49-45l-89 52c38 24 82 38 127 38 27 0 54-5 80-15z m-283-103c15 26 34 48 57 66l93-54c-17-21-34-45-49-70-13-23-24-46-32-68l-96 55c5 25 14 49 27 71z m-30-93l91-53c-21-61-24-116-8-151-61 50-91 127-83 204z m152-244c21 2 45 12 70 30 19 14 38 32 57 53l91-53c-62-45-144-57-218-30z m284 103c-13-23-29-42-48-59l-95 55c15 19 29 40 42 62 15 26 27 53 36 78l94-54c-4-28-14-56-29-82z"/>
<glyph glyph-name="hairdryer" unicode="&#65;" d="M512 373c0 81-36 139-86 139l0 0-246-21c0 0 0-1-1-1 0 0-1 0-1 0l-126-42-41 0c-6 0-11-5-11-11l0-128c0-6 5-10 11-10l41 0 126-42c1-1 1-1 2-1 0 0 0 0 0 0l97-8-18-201c-1-12 3-24 11-33 8-9 20-14 32-14l27 0c18 0 35 12 41 29l65 206c45 6 77 62 77 138z m-459-53l-32 0 0 107 32 0c2 0 3 0 4 0l114 38 0-184-114 38c-1 1-2 1-4 1z m296-284c-3-9-11-15-20-15l-27 0c-6 0-12 3-16 7-4 5-6 11-5 17l17 201 115-10-64-200z m79 220l-236 20 0 194 235 21c36 0 64-51 64-118 0-67-28-117-63-117z m20 181c0-6-5-10-11-10l-85 0c-6 0-11 4-11 10 0 6 5 11 11 11l85 0c6 0 11-5 11-11z m0-64c0-6-5-10-11-10l-85 0c-6 0-11 4-11 10 0 6 5 11 11 11l85 0c6 0 11-5 11-11z m0-64c0-6-5-10-11-10l-85 0c-6 0-11 4-11 10 0 6 5 11 11 11l85 0c6 0 11-5 11-11z"/>
<glyph glyph-name="heating" unicode="&#66;" d="M469 192l0 213c0 24-19 43-42 43-24 0-43-19-43-43l0-21-21 0 0 21c0 24-19 43-43 43-24 0-43-19-43-43l0-21-21 0 0 21c0 24-19 43-43 43-23 0-42-19-42-43l0-21-22 0 0 21c0 24-19 43-42 43-24 0-43-19-43-43l-21 0c-24 0-43-19-43-42l0-43c0-24 19-43 43-43l21 0 0-170c0-24 19-43 43-43 23 0 42 19 42 43l22 0c0-24 19-43 42-43 24 0 43 19 43 43l21 0c0-24 19-43 43-43 24 0 43 19 43 43l21 0c0-24 19-43 43-43 23 0 42 19 42 43 24 0 43 19 43 42 0 24-19 43-43 43z m-106 107l21 0 0-107-21 0z m21 64l0-43-21 0 0 43z m-128-64l21 0 0-107-21 0z m21 64l0-43-21 0 0 43z m-128-64l22 0 0-107-22 0z m22 64l0-43-22 0 0 43z m-128-64c-12 0-22 9-22 21l0 43c0 11 10 21 22 21l21 0 0-85z m85-192c0-12-10-22-21-22-12 0-22 10-22 22l0 298c0 12 10 22 22 22 11 0 21-10 21-22z m21 21l0 43 22 0 0-43z m86-21c0-12-10-22-22-22-11 0-21 10-21 22l0 298c0 12 10 22 21 22 12 0 22-10 22-22z m21 21l0 43 21 0 0-43z m85-21c0-12-9-22-21-22-12 0-21 10-21 22l0 298c0 12 9 22 21 22 12 0 21-10 21-22z m22 21l0 43 21 0 0-43z m85-21c0-12-10-22-21-22-12 0-22 10-22 22l0 298c0 12 10 22 22 22 11 0 21-10 21-22z m21 21l0 43c12 0 22-10 22-22 0-11-10-21-22-21z"/>
<glyph glyph-name="iron" unicode="&#67;" d="M469 440c-1 5-5 8-10 8l-150 0c-127 0-208-124-286-261 0 0 0-1 0-1 0 0 0 0-1 0l-21-43c-2-3-1-7 1-10 2-3 5-5 9-5l448 0c3 0 7 2 9 5 2 3 2 7 0 10l-20 40c1 26 21 47 46 51 0 0 1 0 1 0 5 1 11 0 15 5 2 2 2 5 2 9l-43 192z m-441-291l11 22 392 0 10-22z m399 43l-377 0c73 126 148 235 259 235l141 0 38-172c-31-6-56-32-61-63z m-11 184c-2 5-6 8-11 8l-96 0c-62 0-103-47-158-133-2-3-2-8 0-12 2-3 5-4 9-4l0 0c1 0 1 0 2 0l266 43c3 0 6 2 8 4 1 2 1 4 1 6 0 1 0 2 0 3l-21 85z m-64-89c0 1 0 2 0 3-1 6-7 10-12 9l-64-11c-6-1-10-7-9-12 0-1 0-2 1-3l-86-13c44 67 80 103 127 103l88 0 17-66-62-10z m-288-191l0-21c0-6-5-11-11-11-6 0-10 5-10 11l0 21c0 6 4 11 10 11 6 0 11-5 11-11z m85 0l0-21c0-6-4-11-10-11-6 0-11 5-11 11l0 21c0 6 5 11 11 11 6 0 10-5 10-11z m86 0l0-21c0-6-5-11-11-11-6 0-11 5-11 11l0 21c0 6 5 11 11 11 6 0 11-5 11-11z m85 0l0-21c0-6-5-11-11-11-6 0-10 5-10 11l0 21c0 6 4 11 10 11 6 0 11-5 11-11z m85 0l0-21c0-6-4-11-10-11-6 0-11 5-11 11l0 21c0 6 5 11 11 11 6 0 10-5 10-11z"/>
<glyph glyph-name="jcb-credit-card" unicode="&#68;" d="M469 448l-426 0c-24 0-43-19-43-43l0-298c0-24 19-43 43-43l426 0c24 0 43 19 43 43l0 298c0 24-19 43-43 43z m22-341c0-12-10-22-22-22l-426 0c-12 0-22 10-22 22l0 298c0 12 10 22 22 22l426 0c12 0 22-10 22-22z m-108 277c-7 0-14 0-21-2-5-2-10-4-15-7-5-4-9-9-12-14-4-6-6-13-6-20l0-47c1 0 3 1 4 1l61 0c5 0 8 0 12-1 6-1 14-3 20-9 0 0 0 0 0 0 6-7 6-17 1-25-2-3-6-6-10-8 10-2 18-8 19-18 1-6 0-11-3-14-2-3-5-6-8-8-6-3-13-5-18-5-3 0-5 0-8 0-1 0-3 0-4 0-2 0-3 0-5 0l-57 0c-1 0-3 0-4 1l0-80 63 0c1 0 3 0 5 0 5 0 10 0 15 1 12 3 23 10 30 20 4 7 6 15 6 23l0 212-63 0-2 0z m44-202l0-10c0-4-1-8-3-11-4-5-10-9-17-11-3-1-6-1-10-1l-5 0-41 0 0 37 39 0 9-1c4 0 7 1 9 1 5 0 12 1 19 4l0-8z m0 128c-6 3-12 4-19 5-4 1-9 1-14 1l-43 0-1 25c0 3 1 7 3 9 2 3 4 5 7 7 2 2 5 3 9 5 4 1 10 1 16 1l42 0z m-175 74l-3 0c-6 0-13 0-19-2-14-4-26-14-31-26-3-8-2-16-2-23l0-48c6 3 12 6 20 8 4 1 9 2 14 3l2 0c5 1 10 1 16 1 1 0 3 0 5 0 3 0 7 0 10 0 10-1 20-2 29-4l3 0c0 0 1 0 2 0 3-1 6-4 6-8l0-7c0-3-1-5-4-6-1-1-3-1-4-1-1 0-2 0-3 0-8 3-16 5-24 6-3 0-6 1-9 1-3 0-5-1-7-1-6 0-11-2-15-4 0 0 0 0 0 0-5-3-10-8-11-14-2-8-1-16 2-22 3-5 9-9 15-11l0 0c6-1 11-2 15-2 2 0 4 0 5 0 11 1 20 4 28 7 1 0 2 0 4 0 1 0 3 0 4-1 2-1 4-3 4-6l0-8c0-3-3-6-7-7-9-2-18-3-27-4-5 0-11 0-16 0l-4 0c-4 0-8 0-12 0-4 0-10 1-15 2-7 1-13 3-18 6-3 1-6 2-8 4l0-89 62 0c2 0 3 0 5 0 5 0 10 0 15 1 11 3 21 9 28 17 4 7 8 14 8 21 0 2 1 3 1 5l0 212-64 0z m33-133c-7-3-14-5-23-5-1-1-2-1-2-1-3 0-6 1-10 2-2 0-3 1-3 1 0 1 0 3 0 6l1 0 1 0c0 1 2 2 6 2 2 0 3 0 5 0 2 0 4 0 7 0 6-1 12-3 18-5 0 0 0 0 1 0-1 0-1 0-1 0z m9-70l0-9c0-1 0-2 0-3 0-2-1-5-4-10-4-4-9-7-16-9-3-1-7-1-10-1l-5 0-41 0 0 37c0 0 0 0 1 0 6-1 12-2 18-2 4-1 8-1 13-1l4 0c5 0 12 0 18 1 7 1 15 2 22 3l0-6z m0 134c-9 1-19 3-29 3-4 0-7 0-11 0l-6 0c-5 0-12 0-18-1l-2 0c-4-1-7-1-10-2l0 18 0 2c0 5 0 10 1 13 2 6 9 11 17 14 3 1 8 1 13 1l45 0 0-48z m-197 67c-14-4-25-14-30-25-3-7-3-14-3-20l0-107c1 1 2 1 4 1 1 0 2 0 3-1 8-3 16-5 24-6 3 0 6 0 9 0 4 0 8 0 12 2 0 0 0 0 0 0 6 2 10 7 11 14l0 47c0 4 4 8 8 8l31 0c5 0 9-4 9-8l0-45c0-6-2-15-8-22-8-9-21-12-30-14-3 0-5 0-7-1-1 0-2 0-3 0-2 0-5 0-8 0-3-1-6-1-9-1-2 0-4 0-6 1-10 0-20 1-32 3-2 0-4 1-6 1-1 0-1 0-2 1l0-82 65 0c6 0 13 0 19 2 12 3 23 11 29 21 3 5 5 11 5 17 1 2 1 3 1 4l0 212-71 0c-5 0-10-1-15-2z m64-210c0 0 0-1 0-2 0-3-1-6-2-8-3-6-10-10-16-12-4 0-9-1-14-1l-44 0 0 36c7-1 12-1 18-2 2 0 5 0 7 0 3 0 6 0 10 0 4 0 7 1 10 1l2 0c2 0 5 1 8 1 6 1 14 3 21 6z m0 144l-26 0c-16 0-29-13-29-29l-1-42c0 0-1 0-1 0-2 0-4 0-7 1-4 0-8 1-12 2l0 89c0 5 1 8 2 11 2 6 9 11 15 13 4 1 7 2 10 2l49 0 0-47z m194-73l0-17 23 0c10 0 11 6 11 8 0 3-1 6-4 7-2 1-4 2-8 2l-22 0z m25 33c0 0-2 0-4 0l-21 0 0-15 19 0c1 0 2 0 3 0 2 0 5 1 7 3 2 2 3 5 1 7-1 3-3 5-5 5z"/>
<glyph glyph-name="laundry" unicode="&#69;" d="M405 512l-298 0c-24 0-43-19-43-43l0-426c0-24 19-43 43-43l298 0c24 0 43 19 43 43l0 426c0 24-19 43-43 43z m-320-128l342 0 0-299-342 0z m342 85l0-64-192 0 0 86 170 0c12 0 22-10 22-22z m-320 22l106 0 0-86-128 0 0 64c0 12 10 22 22 22z m298-470l-298 0c-12 0-22 10-22 22l0 21 342 0 0-21c0-12-10-22-22-22z m-21 406c12 0 21 9 21 21 0 12-9 21-21 21-12 0-21-9-21-21 0-12 9-21 21-21z m11 21l-11 0 0 0 11 0z m-288-11c0 6 4 11 10 11l64 0c6 0 11-5 11-11 0-6-5-10-11-10l-64 0c-6 0-10 4-10 10z m149-117c-47 0-85-38-85-85 0-47 38-86 85-86 47 0 85 39 85 86 0 47-38 85-85 85z m0-149c-35 0-64 28-64 64 0 35 29 64 64 64 35 0 64-29 64-64 0-36-29-64-64-64z m0 192c-71 0-128-58-128-128 0-71 57-128 128-128 71 0 128 57 128 128 0 70-57 128-128 128z m0-235c-59 0-107 48-107 107 0 58 48 106 107 106 59 0 107-48 107-106 0-59-48-107-107-107z"/>
<glyph glyph-name="linens" unicode="&#70;" d="M469 512l-426 0c-24 0-43-19-43-43l0-426c0-24 19-43 43-43l362 0c24 0 43 19 43 43l0 21 21 0c24 0 43 19 43 43l0 362c0 24-19 43-43 43z m-448-363c18-1 28-5 39-10 14-5 29-11 57-11 29 0 43 6 58 11 12 6 24 10 49 10 25 0 37-4 49-10 14-5 29-11 58-11 28 0 43 6 57 11 11 5 21 9 39 10l0-43c-22-1-35-6-47-11-13-5-25-10-49-10-25 0-37 5-50 10-14 6-28 12-57 12-29 0-43-6-57-12-13-5-25-10-50-10-24 0-36 5-49 10-12 5-25 10-47 11l0 43z m22 342l389 0c-3-7-5-14-5-22l0-299c-22-1-35-6-47-11-13-5-25-10-49-10-25 0-37 5-50 10-14 6-28 12-57 12-29 0-43-6-57-12-13-5-25-10-50-10-24 0-36 5-49 10-12 5-25 10-47 11l0 299c0 12 10 22 22 22z m362-470l-362 0c-12 0-22 10-22 22l0 42c18-1 28-5 39-10 14-5 29-11 57-11 29 0 43 6 58 11 12 6 24 10 49 10 25 0 37-4 49-10 14-5 29-11 58-11 28 0 43 6 57 11 11 5 21 9 39 10l0-42c0-12-10-22-22-22z m86 86c0-12-10-22-22-22l-21 0 0 384c0 12 10 22 21 22 12 0 22-10 22-22z"/>
<glyph glyph-name="lounge" unicode="&#71;" d="M491 367c-12 11-27 17-43 17l0 11c0 41-33 74-75 74l-234 0c-42 0-75-33-75-74l0-11c-16 0-31-6-43-17-13-12-21-29-21-47 0-18 8-35 21-48l0-144c0-24 19-43 43-43l0-32c0-6 5-10 11-10l64 0c6 0 10 4 10 10l0 32 214 0 0-32c0-6 4-10 10-10l64 0c6 0 11 4 11 10l0 32c24 0 43 19 43 43l0 144c13 13 21 30 21 48 0 18-8 35-21 47z m-352 81l234 0c30 0 54-24 54-53l0-15c-25-9-43-34-43-63l0-82-256 0 0 82c0 29-18 54-43 63l0 15c0 29 24 53 54 53z m-11-235l256 0 0-21-256 0z m0-149l-43 0 0 21 43 0z m299 0l-43 0 0 21 43 0z m46 222c-3-3-5-7-4-11l0-147c0-12-9-21-21-21l-384 0c-12 0-21 9-21 21l0 146c1 4 0 9-4 12-11 8-18 20-18 34 0 12 5 24 14 32 9 8 21 12 33 10 22-2 39-22 39-45l0-136c0-6 4-10 10-10l278 0c6 0 10 4 10 10l0 136c0 23 17 43 39 45 12 2 24-2 33-10 9-8 14-20 14-32 0-14-7-26-18-34z"/>
<glyph glyph-name="maestro-credit-card" unicode="&#72;" d="M206 274c-4 0-9-1-15-3l-2-9 1 0 2 0c3 1 7 2 11 2 6 0 8-1 8-4 0-1 0-2 0-3-2 0-4 0-5 0-15 0-23-6-23-16 0-7 5-12 12-12 5 0 10 2 13 5l0-4 11 0 0 1 0 1 0 3 1 2 3 16c0 4 0 6 0 8 0 8-5 13-17 13z m-6-36c-3 0-5 2-5 4 0 5 4 7 11 7 1 0 2 0 3 0 0-6-4-11-9-11z m-13 44l-10-52-13 0 7 40-17-40-12 0-2 40-8-40-12 0 10 52 20 0 1-32 15 32 21 0z m88 32l-37 0c3 4 5 8 8 12l21 0c3-4 6-8 8-12z m11-23l-60 0c0 1 3 6 6 12l50 0c1-4 3-8 4-12z m-38-62c4 0 9 1 13 2l2 10c-4-1-9-2-13-2-8 0-12 2-12 7 0 1 0 1 1 2l25 0c1 4 2 7 2 10 0 10-7 16-18 16-13 0-22-11-22-26 0-13 7-19 22-19z m0 35c4 0 6-2 6-6l0-2-14 0c1 5 4 8 8 8z m106-4l-1 0c-1 1-1 1-2 1-6 0-8-5-13-31l-13 0 8 43 12 0-1-7c4 5 7 7 11 7 1 0 1 0 2 0-1 0 0 0 1 0 0 0 0 0 1-1l-5-12z m-109-73l22 0c-3-4-7-8-11-12l0 0c0 0 0 0 0 0-4 3-8 8-11 12z m134 87c-15 0-25-10-25-26 0-11 5-19 20-19 13 0 23 6 25 20 1 3 1 3 1 6 0 10-7 19-21 19z m6-24c-1-7-7-11-9-11l-1 0c-4 0-7 4-7 10 0 7 4 14 11 14 5 0 7-4 7-8 0-2 0-4-1-5z m84 198l-426 0c-24 0-43-19-43-43l0-298c0-24 19-43 43-43l426 0c24 0 43 19 43 43l0 298c0 24-19 43-43 43z m22-341c0-12-10-22-22-22l-426 0c-12 0-22 10-22 22l0 298c0 12 10 22 22 22l426 0c12 0 22-10 22-22z m-162 280c-26 0-51-8-73-23-22 15-47 23-74 23-72-1-130-59-130-131 0-72 58-131 131-131 26 0 51 8 73 23 22-15 47-23 73-23 35 0 68 14 93 38 24 25 38 58 38 92 0 0 0 1 0 1l0 0c0 72-58 131-131 131z m110-131c0-60-49-110-110-110l0 0c-28 0-54 11-73 29-19-18-45-28-73-28-61 0-110 49-110 109 0 60 49 109 109 110l1 0c28 0 54-11 73-29 19 18 45 29 73 29l0 0c61 0 110-49 110-110 0 0 0 0 0 0z m-209-46l52 0c-2-4-4-8-7-12l-38 0c-3 4-5 8-7 12z m97 63l-2-11-6 0-4-18c0 0 0-1 0-1 0-3 1-4 5-4 1 0 2 1 3 1l-2-10c-3-1-6-1-9-1-7 0-10 3-10 9 0 1 0 3 0 4l1 4 0 4 6 32 13 0-2-9 7 0z m-37 1c3 0 8-1 11-1l-2-10c-3 0-7 0-9 0-4 0-7-1-7-3 0-2 1-3 7-5 6-2 9-6 9-12 0-9-7-14-20-14-2 0-4 0-8 0-1 1-2 1-3 1l-3 0 2 10c4-1 8-1 12-1 5 0 7 1 7 3 0 2-1 3-6 5-7 3-10 7-10 12 0 8 5 15 20 15z"/>
<glyph glyph-name="letter-1" unicode="&#73;" d="M469 448l-426 0c-24 0-43-19-43-43l0-298c0-24 19-43 43-43l426 0c24 0 43 19 43 43l0 298c0 24-19 43-43 43z m22-341c0-12-10-22-22-22l-426 0c-12 0-22 10-22 22l0 298c0 12 10 22 22 22l426 0c12 0 22-10 22-22z m-36 269l-128-120 128-120c5-4 5-11 1-15-2-3-5-4-8-4-3 0-5 1-7 3l-130 121-11-10c-12-11-28-18-44-18-17 0-32 7-44 18l-11 10-130-121c-2-2-4-3-7-3-3 0-6 1-8 4-4 4-4 11 1 15l128 120-128 120c-5 4-5 11-1 15 4 5 11 5 15 1l155-146c16-15 43-15 60 0l155 146c4 4 11 4 15-1 4-4 4-11-1-15z"/>
<glyph glyph-name="mastercard-card" unicode="&#74;" d="M156 274c-8 0-14-2-14-2l-2-10c0 0 5 2 13 2 4 0 7-1 7-4 0-2 0-3 0-3 0 0-3 0-5 0-10 0-21-4-21-17 0-10 7-13 12-13 8 0 11 6 12 6l-1-5 11 0 4 32c0 14-12 14-16 14z m-6-37c-3 0-4 3-4 4 0 4 1 7 10 7 2 0 2 0 3 0 0-2-2-11-9-11z m37 23c0-6 14-3 14-18 0-14-13-15-17-15l-1 0c-10 0-13 2-13 2l2 10c0 0 5-2 10-2 3 0 7 1 7 4 0 6-14 5-14 18 0 12 8 15 17 15 7 0 11-1 11-1l-2-10c0 0-6 1-8 1-4 0-6-1-6-4z m39 13l-2-11-6 0-3-20c-1-2 0-4 4-4 1 0 2 1 3 1l-2-10c-1-1-4-2-8-2l-1 0c-5 0-9 3-9 10 0 5 7 43 7 43l12 0-1-7 6 0z m18-46c9 0 13 2 13 2l2 11c0 0-7-3-13-3-12 0-10 10-10 10l24 0c0 0 1 7 1 10 0 8-4 18-16 18-12 0-21-13-21-27 0-17 11-21 20-21z m1 37c6 0 5-7 5-8l-13 0c0 1 1 8 8 8z m30 50l-37 0c3 4 5 8 8 12l21 0c3-4 6-8 8-12z m-136-30l-10-56-12 0 7 42-15-42-8 0-1 42-7-42-12 0 10 56 17 0 1-34 11 34z m147 7l-60 0c0 1 2 6 6 12l50 0c2-4 3-8 4-12z m96-45c0-9 5-19 15-19 7 0 10 5 10 5l0-4 11 0 9 56-12 0-2-16c0 0-4 6-11 6-11 0-20-13-20-28z m28 7c0-6-3-14-9-14-5 0-7 3-7 9 0 9 5 15 10 15 4 0 6-3 6-10z m-80 134c-27 0-52-8-74-22-22 14-47 22-74 22-72 0-131-59-131-131 0-72 59-131 131-131 27 0 52 8 74 22 22-14 47-22 74-22 35 0 68 13 92 38 25 25 39 57 39 92 0 0 0 1 0 1l0 0c0 72-59 131-131 131z m109-131c1-61-49-110-109-110l0 0c-29 0-55 11-74 29-19-18-45-29-74-29-60 0-109 49-109 110 0 60 48 109 109 110l0 0c29 0 55-11 74-29 19 18 45 29 74 29l0 0c60 0 109-49 110-110-1 0-1 0-1 0z m-93 18c-8 0-15-2-15-2l-1-10c0 0 5 2 12 2 5 0 8-1 8-4 0-2 0-3 0-3 0 0-4 0-5 0-11 0-21-4-21-17 0-10 7-13 11-13 8 0 12 6 12 6l0-5 10 0 5 32c0 14-12 14-16 14z m-6-37c-4 0-5 3-5 4 0 4 2 7 11 7 2 0 2 0 2 0 0-2-1-11-8-11z m43 23c0 0-1 0-2 0-6 0-7-14-10-32l-12 0 7 45 11 0-1-6c0 0 4 7 9 7 2 0 3 0 3 0-2-3-3-6-5-14z m86 188l-426 0c-24 0-43-19-43-43l0-298c0-24 19-43 43-43l426 0c24 0 43 19 43 43l0 298c0 24-19 43-43 43z m22-341c0-12-10-22-22-22l-426 0c-12 0-22 10-22 22l0 298c0 12 10 22 22 22l426 0c12 0 22-10 22-22z m-202 167c-1-3-2-6-4-14-1 0-1 0-2 0-6 0-7-14-10-32l-12 0 7 45 11 0-1-6c0 0 4 7 9 7l0 0c2 0 2 0 2 0z m-59-64l52 0c-2-4-4-8-6-12l-39 0c-3 4-5 8-7 12z m81 29c4 0 10 2 10 2l-2-12c0 0-7-2-11-2-14 0-21 10-21 24 0 22 14 34 27 34 6 0 13-3 13-3l-2-12c0 0-5 3-10 3-8 0-16-8-16-21 0-7 4-13 12-13z m-66-52l22 0c-3-5-7-9-11-12l0 0c0 0 0 0 0 0-4 3-8 7-11 12z"/>
<glyph glyph-name="add-bag" unicode="&#75;" d="M395 235c-4 0-7-1-11-1l0 139c0 6-5 11-11 11l-53 0 0 44c0 22-9 44-24 60-16 15-38 24-59 24l-89 0c-22 0-44-9-60-24-15-16-24-38-24-60l0-44-53 0c-6 0-11-5-11-11l0-330c0-24 19-43 43-43l352 0c64 0 117 53 117 117 0 65-53 118-117 118z m-96 193l0-44-22 0 0 91c1-1 3-2 3-3 12-11 19-27 19-44z m-171-44l0 64 128 0 0-64z m109 107c6 0 13-2 19-4l0-18-128 0 0 18c6 2 13 4 20 4z m-152-63c0 17 7 33 19 44 1 1 2 2 3 3l0-91-22 0 0 45z m-42-407c-12 0-22 10-22 22l0 320 342 0 0-133c-50-14-86-59-86-113 0-39 20-74 50-96z m352 0c-53 0-96 43-96 96 0 53 43 96 96 96 53 0 96-43 96-96 0-53-43-96-96-96z m74 96c0-6-4-10-10-10l-54 0 0-54c0-6-4-10-10-10-6 0-11 4-11 10l0 54-53 0c-6 0-11 4-11 10 0 6 5 11 11 11l53 0 0 53c0 6 5 11 11 11 6 0 10-5 10-11l0-53 54 0c6 0 10-5 10-11z"/>
<glyph glyph-name="mobile-app" unicode="&#76;" d="M405 512l-298 0c-24 0-43-19-43-43l0-426c0-24 19-43 43-43l298 0c24 0 43 19 43 43l0 426c0 24-19 43-43 43z m-298-21l298 0c12 0 22-10 22-22l0-341-342 0 0 341c0 12 10 22 22 22z m298-470l-298 0c-12 0-22 10-22 22l0 64 342 0 0-64c0-12-10-22-22-22z m-149 75c-18 0-32-14-32-32 0-18 14-32 32-32 18 0 32 14 32 32 0 18-14 32-32 32z m0-43c-6 0-11 5-11 11 0 6 5 11 11 11 6 0 11-5 11-11 0-6-5-11-11-11z m-32 406c0 6 5 10 11 10l42 0c6 0 11-4 11-10 0-6-5-11-11-11l-42 0c-6 0-11 5-11 11z"/>
<glyph glyph-name="newspaper-4" unicode="&#77;" d="M469 448l-384 0c-23 0-42-19-42-43-24 0-43-19-43-42l0-256c0-24 19-43 43-43l426 0c24 0 43 19 43 43l0 298c0 24-19 43-43 43z m22-341c0-12-10-22-22-22l-426 0c-12 0-22 10-22 22l0 256c0 11 10 21 22 21l0-267c0-6 4-10 10-10 6 0 11 4 11 10l0 288c0 12 10 22 21 22l384 0c12 0 22-10 22-22z m-374 106l150 0c6 0 10 5 10 11l0 128c0 6-4 11-10 11l-150 0c-6 0-10-5-10-11l0-128c0-6 4-11 10-11z m11 128l128 0 0-106-128 0z m320-181c0-6-5-11-11-11l-320 0c-6 0-10 5-10 11 0 6 4 11 10 11l320 0c6 0 11-5 11-11z m0 192c0-6-5-11-11-11l-106 0c-6 0-11 5-11 11 0 6 5 11 11 11l106 0c6 0 11-5 11-11z m0-64c0-6-5-11-11-11l-106 0c-6 0-11 5-11 11 0 6 5 11 11 11l106 0c6 0 11-5 11-11z m0-64c0-6-5-11-11-11l-106 0c-6 0-11 5-11 11 0 6 5 11 11 11l106 0c6 0 11-5 11-11z"/>
<glyph glyph-name="no-smoking-1" unicode="&#78;" d="M256 512c-141 0-256-115-256-256 0-141 115-256 256-256 141 0 256 115 256 256 0 141-115 256-256 256z m0-491c-129 0-235 106-235 235 0 129 106 235 235 235 129 0 235-106 235-235 0-129-106-235-235-235z m0 448c-49 0-96-17-134-47-2-2-4-5-4-8 0 0 0 0 0 0 0-3 1-6 3-8l285-285c2-2 5-3 8-3l0 0c3 0 6 2 8 4 30 38 47 85 47 134 0 118-95 213-213 213z m45-213l62 0 0-21-40 0z m111-111l-68 68 29 0c6 0 11 5 11 11l0 43c0 6-5 10-11 10l-93 0-135 135c32 24 71 36 111 36 106 0 192-86 192-192 0-40-12-79-36-111z m-147 87l-159 159c-2 2-5 3-8 3-3 0-6-2-8-4-30-38-47-85-47-134 0-118 95-213 213-213 49 0 96 17 134 47 2 2 4 5 4 8 0 3-1 6-3 8z m-158 3l0 21 64 0 0-21z m85 21l19 0 21-21-40 0z m64-192c-106 0-192 86-192 192 0 40 12 79 36 111l89-90-93 0c-6 0-11-4-11-10l0-43c0-6 5-11 11-11l157 0 114-113c-32-24-71-36-111-36z m171 203l0-43c0-6-5-11-11-11-6 0-11 5-11 11l0 43c0 6 5 10 11 10 6 0 11-4 11-10z m-19 35c-15 15-21 28-27 40-4 9-8 16-15 24-4 4-4 11 0 15 4 4 11 4 15 0 10-10 15-20 19-30 6-11 11-22 24-34 4-4 4-11 0-15-3-2-5-3-8-3-3 0-5 1-8 3z"/>
<glyph glyph-name="garage" unicode="&#79;" d="M415 252l-25 100c-5 19-22 32-42 32l-184 0c-20 0-37-13-42-32l-25-100c-19-8-33-27-33-49l0-43c0-17 8-33 21-42 0-1 0-1 0-1l0-10c0-24 19-43 43-43 24 0 43 19 43 43l170 0c0-24 19-43 43-43 24 0 43 19 43 43l0 10c0 0 0 0 0 1 13 9 21 25 21 42l0 43c0 22-14 41-33 49z m-272 95c2 9 11 16 21 16l184 0c10 0 19-7 21-16l23-91-272 0 23 91z m-15-262c-12 0-21 10-21 22l42 0c0-12-9-22-21-22z m277 22c0-12-9-22-21-22-12 0-21 10-21 22z m22 53c0-18-15-32-32-32l-278 0c-17 0-32 14-32 32l0 43c0 17 15 32 32 32l278 0c17 0 32-15 32-32z m-288 53c-18 0-32-14-32-32 0-17 14-32 32-32 17 0 32 15 32 32 0 18-15 32-32 32z m0-42c-6 0-11 4-11 10 0 6 5 11 11 11 6 0 10-5 10-11 0-6-4-10-10-10z m234 42c-17 0-32-14-32-32 0-17 15-32 32-32 18 0 32 15 32 32 0 18-14 32-32 32z m0-42c-6 0-10 4-10 10 0 6 4 11 10 11 6 0 11-5 11-11 0-6-5-10-11-10z m-53 32c0-6-5-11-11-11l-106 0c-6 0-11 5-11 11 0 6 5 10 11 10l106 0c6 0 11-4 11-10z m0-43c0-6-5-11-11-11l-106 0c-6 0-11 5-11 11 0 6 5 11 11 11l106 0c6 0 11-5 11-11z m192 245l0-330c0-6-5-11-11-11-6 0-10 5-10 11l0 330c0 12-10 22-22 22l-426 0c-12 0-22-10-22-22l0-330c0-6-4-11-10-11-6 0-11 5-11 11l0 330c0 24 19 43 43 43l426 0c24 0 43-19 43-43z"/>
<glyph glyph-name="paypal-4" unicode="&#80;" d="M346 319c0 1 1 1 1 2 1 18-5 36-18 47-17 15-40 16-62 16l-67 0c-13 0-22-7-24-20l-29-186c-1-5-1-13 3-18 3-4 8-5 12-5l33 0-1-5c0-3-1-11 4-17 2-3 6-5 11-5l43 0c7 1 13 6 14 14l7 50c1 2 1 3 1 3l16 0c42 0 72 31 75 78 2 16-2 30-11 40-3 2-5 4-8 6z m-139-88l-9-55-30 0 30 186c0 0 0 1 2 1l66 0c19 0 38-1 49-11 7-6 10-15 10-25-5 1-11 2-17 2l-66 0c-13 0-21-7-22-19l-13-78c0-1 0-1 0-1z m116 75c-8-33-30-52-62-52l-29 0 8 53c0 0 0 0 2 0l66 0c5 0 10 0 15-1z m-33-89l-18 0c-5 0-17-2-20-21l-7-47-29 0 3 20c0 0 0 1 0 1l9 58c1 3 1 4 1 5l32 0c39 0 68 23 80 60 2-5 4-11 3-19-3-36-23-57-54-57z m179 231l-426 0c-24 0-43-19-43-43l0-298c0-24 19-43 43-43l426 0c24 0 43 19 43 43l0 298c0 24-19 43-43 43z m22-341c0-12-10-22-22-22l-426 0c-12 0-22 10-22 22l0 298c0 12 10 22 22 22l426 0c12 0 22-10 22-22z"/>
<glyph glyph-name="dog" unicode="&#81;" d="M468 150c-10 7-20 14-23 18-4 3-10 24-14 39-8 27-17 55-29 67-11 11-13 22-12 24 0 0 1 1 5 1 6 0 10 4 10 10 0 6-4 11-10 11-65 1-176 9-195 29l-96 96c-3 2-6 3-10 3-3-1-6-3-8-6l-9-19-30-19c-2-2-4-6-4-9l0-16-39-29c-4-3-5-8-3-13 5-11 10-24 10-28 0-7 7-23 23-48 1-2 3-4 6-5 3 0 6 0 8 2 2 1 39 25 48 60 2 9 5 12 6 12 1 0 5-3 5-10 0-21 15-104 22-121 5-14 10-53 10-71 0-3-1-11-8-26-4-8-4-18 1-25 5-8 14-13 23-13l26 0c18 0 32 14 32 32l0 79c37 20 80 36 91 29 8-5 17-16 25-28 14-19 29-40 52-47 31-11 46-24 46-33 0-27 14-32 42-32 24 0 43 19 43 43 0 11-13 21-45 44z m1-65c-17 0-20 2-20 3 0 0-1 2-1 8 0 21-22 40-61 53-15 5-28 22-40 39-10 14-20 27-32 35-5 2-11 4-18 4-32 0-83-27-100-36-3-2-5-6-5-10l0-85c0-6-5-11-11-11l-26 0c-3 0-4 2-5 3 0 1-1 3 0 5 7 15 10 26 10 35 0 17-4 61-11 79-6 13-21 93-21 113 0 16-10 30-24 32-5 0-22 0-29-29-4-18-19-33-29-41-7 12-13 24-14 27 0 7-5 20-8 29l36 27c2 2 4 5 4 8l0 16 27 18c2 1 3 3 4 4l4 8 85-85c26-26 134-33 185-35-2-13 7-29 18-40 8-8 17-37 23-58 8-27 13-42 20-49 5-4 14-11 25-19 11-8 31-22 36-28-1-11-10-20-22-20z"/>
<glyph glyph-name="pig" unicode="&#82;" d="M149 320c-11 0-21-10-21-21 0-12 10-22 21-22 12 0 22 10 22 22 0 11-10 21-22 21z m0-21z m363 32c0 17-13 31-30 32-40 52-114 85-194 85-44 0-87-10-123-28-23 23-78 27-90 28-3 0-7-1-9-4-2-3-3-6-2-10 1-2 13-41 31-70-16-20-26-42-30-65l-22 0c-24 0-43-19-43-43l0-16c0-14 7-27 18-34 20-15 67-39 110-58l0-73c0-6 5-11 11-11l42 0c5 0 8 3 10 6l20 47c57-16 119-13 173 6l22-53c2-3 6-6 10-6l43 0c6 0 10 5 10 11l0 102c28 30 43 64 43 100 0 12-2 24-5 36 3 5 5 11 5 18z m-27-19c4-12 6-23 6-35 0-32-14-62-41-88-2-3-3-7-2-11l0-93-25 0-24 56c-2 5-8 8-14 6-53-22-119-25-177-7-5 2-11-1-13-6l-21-49-25 0 0 70c0 5-2 9-6 10-48 20-95 45-113 58-5 4-9 10-9 17l0 16c0 12 10 21 22 21l32 0c5 0 10 5 10 10 2 25 13 49 31 70 3 3 3 9 1 13-12 16-22 40-27 55 26-3 56-11 62-24 1-2 4-4 6-5 3-1 6 0 9 1 35 19 77 30 121 30 76 0 145-32 180-82 3-3 7-5 11-4 0 0 1 0 1 0 6 0 11-4 11-10 0-3-2-6-4-8-2-3-3-7-2-11z m-133 74c-1-5-5-8-10-8-1 0-2 0-2 0-34 8-70 8-103 0-6-1-11 2-13 8-1 6 3 12 8 13 37 8 76 8 113 0 5-2 9-7 7-13z"/>
<glyph glyph-name="pool" unicode="&#83;" d="M160 107c6 0 11 4 11 10l0 54 85 0 0-54c0-6 5-10 11-10 6 0 10 4 10 10l0 278c0 17 15 32 32 32 6 0 11 4 11 10 0 6-5 11-11 11-29 0-53-24-53-53l0-11-85 0 0 11c0 17 14 32 32 32 6 0 10 4 10 10 0 6-4 11-10 11-30 0-54-24-54-53l0-278c0-6 5-10 11-10z m96 149l-85 0 0 43 85 0z m-85-64l0 43 85 0 0-43z m85 171l0-43-85 0 0 43z m-254-146c-3 5-3 11 2 15 4 4 11 3 15-1 1-1 15-18 45-18 30 0 45 17 45 18 4 4 11 5 15 1 5-4 5-10 2-15-1-1-22-25-62-25-40 0-61 24-62 25z m506 15c5-4 5-10 2-15-1-1-22-25-62-25-25 0-43 10-53 17-8-8-22-17-43-17-34 0-51 25-52 26-3 5-1 12 3 15 5 3 12 2 15-3 1-1 12-17 34-17 22 0 33 16 34 17 0 0 1 1 1 1 0 0 0 1 1 1 0 0 0 0 1 1 0 0 0 0 1 0 1 1 2 1 2 1 1 0 1 0 2 0 1 0 1 1 2 0 1 0 1 0 2 0 1 0 1-1 2-1 0 0 1 0 1 0 0 0 0-1 0-1 1 0 1-1 2-1 1-1 15-18 45-18 30 0 45 17 45 18 4 4 11 5 15 1z m-506 49c-3 5-3 11 2 15 4 4 11 3 15-1 1-1 15-18 45-18 30 0 45 17 45 18 4 4 11 5 15 1 5-4 5-10 2-15-1-1-22-25-62-25-40 0-61 24-62 25z m316 13c1-1 12-17 34-17 22 0 33 16 34 17 0 0 1 1 1 1 0 0 0 1 1 1 0 0 0 0 1 1 0 0 0 0 1 0 1 1 2 1 2 1 1 0 1 0 2 0 1 0 1 1 2 0 1 0 1 0 2 0 1 0 1-1 2-1 0 0 1 0 1 0 0 0 0-1 0-1 1 0 1-1 2-1 1-1 15-18 45-18 30 0 45 17 45 18 4 4 11 5 15 1 5-4 5-10 2-15-1-1-22-25-62-25-25 0-43 10-53 17-8-8-22-17-43-17-34 0-51 25-51 26-4 5-2 12 2 15 5 3 12 2 15-3z m-316-141c-3 5-3 11 2 15 4 4 11 3 15-1 1-1 15-18 45-18 30 0 45 17 45 18 4 4 11 5 15 1 5-4 5-10 2-15-1-1-22-25-62-25-40 0-61 24-62 25z m506 15c5-4 5-10 2-15-1-1-22-25-62-25-25 0-43 10-53 17-8-8-22-17-43-17-34 0-51 25-52 26-3 5-1 12 3 15 5 3 12 2 15-3 1-1 12-17 34-17 22 0 33 16 34 17 0 0 1 1 1 1 0 0 0 1 1 1 0 0 0 0 1 1 0 0 1 0 1 0 1 1 2 1 2 1 1 0 1 0 2 0 1 1 1 1 2 0 1 0 1 0 2 0 1 0 1-1 2-1 0 0 1 0 1 0 0 0 0-1 0-1 1 0 1-1 2-1 1-1 15-18 45-18 30 0 45 17 45 18 4 4 11 5 15 1z m0-64c5-4 5-10 2-15-1-1-22-25-62-25-25 0-43 10-53 17-8-8-22-17-43-17-21 0-35 9-43 17-10-7-28-17-53-17-25 0-43 10-53 17-8-8-22-17-43-17-21 0-35 9-43 17-10-7-28-17-53-17-40 0-61 24-62 25-3 5-3 11 2 15 4 4 11 3 15-1 1-1 15-18 45-18 30 0 45 17 45 18 1 0 1 0 1 1 1 0 1 1 1 1 1 0 1 0 1 0 1 0 1 1 2 1 1 0 1 0 2 0 1 1 1 0 2 0 0 0 1 0 2 0 1 0 1 0 1 0 1-1 2-1 3-2 0 0 0 0 0 0 1 0 1 0 1-1 0 0 1-1 1-1 1-1 12-17 34-17 22 0 33 16 34 17 0 0 1 1 1 1 0 0 0 1 1 1 0 0 0 0 1 1 0 0 0 0 1 0 1 1 2 1 2 1 1 0 1 0 2 0 0 1 1 1 2 0 1 0 1 0 2 0 0 0 1 0 2-1 0 0 0 0 1 0 0 0 0-1 0-1 1 0 1-1 2-1 1-1 15-18 45-18 30 0 45 17 45 18 1 0 1 0 1 1 1 0 1 1 1 1 1 0 1 0 1 0 1 0 1 1 2 1 1 0 1 0 2 0 1 1 1 0 2 0 1 0 1 0 2 0 1 0 1 0 1 0 1-1 2-1 3-2 0 0 0 0 0 0 1 0 1 0 1-1 0 0 1 0 1-1 1-1 12-17 34-17 22 0 33 16 34 17 0 0 1 1 1 1 0 0 0 1 1 1 0 0 0 0 1 1 0 0 0 0 1 0 1 1 2 1 2 1 1 0 1 0 2 0 0 1 1 1 2 0 1 0 1 0 2 0 0 0 1 0 2-1 0 0 1 0 1 0 0 0 0-1 0-1 1 0 1-1 2-1 1-1 15-18 45-18 30 0 45 17 45 18 4 4 11 5 15 1z"/>
<glyph glyph-name="pound-currency" unicode="&#84;" d="M440 85l-63 18c-3 1-6 0-8-1-3-2-4-4-5-7-1-2-3-10-8-10-10 0-25 8-39 16-25 13-52 27-86 27-4 0-7 0-11 0 19 35 29 64 29 85l82 0c4 0 8 3 10 8l21 64c1 3 1 6-1 9-2 3-5 5-9 5l-131 0c-11 21-22 44-22 64 0 27 0 64 82 64 76 0 81-37 82-44 0-6 4-10 11-10l63 0c6 0 11 5 11 11 0 44-35 128-167 128-106 0-167-54-167-149 0-25 6-46 13-64l-52 0c-6 0-11-5-11-11l0-64c0-6 5-11 11-11l89 0c0-20-59-103-97-141-4-4-4-10-1-15l43-53c2-3 5-4 8-4 2 0 4 0 6 1l25 14c46 24 54 28 83 28 13 0 29-9 46-18 23-12 48-25 79-25 60 0 86 47 92 72 1 6-2 11-8 13z m-84-64c-25 0-49 12-69 23-20 10-38 20-56 20-35 0-45-5-94-30l-17-10-31 39c34 37 96 120 96 150 0 4-1 9-2 14-2 5-6 8-11 8l-87 0 0 42 58 0c4 0 7 2 9 5 2 3 2 7 1 10-8 19-18 43-18 71 0 105 79 128 146 128 105 0 140-58 145-96l-44-1c-5 19-24 54-101 54-103 0-103-58-103-85 0-27 13-53 26-78l9 5-9-7c2-3 6-6 10-6l123 0-14-42-86 0c-3 0-6-2-8-4-2-2-3-4-3-7 0 0 0-1 0-1l1-4c0-2 1-4 1-6 0-21-13-53-37-92-1-2-1-4-1-6 0-2 1-4 2-5 2-4 6-6 10-5 9 1 18 2 29 2 29 0 54-13 76-25 17-9 34-18 49-18 12 0 20 7 25 16l43-13c-8-19-29-46-68-46z"/>
<glyph glyph-name="radio" unicode="&#85;" d="M469 320l-389 0 183 174c5 4 5 10 1 15-4 4-11 4-15 0l-200-189-6 0c-24 0-43-19-43-43l0-234c0-24 19-43 43-43l426 0c24 0 43 19 43 43l0 234c0 24-19 43-43 43z m22-277c0-12-10-22-22-22l-426 0c-12 0-22 10-22 22l0 234c0 12 10 22 22 22l426 0c12 0 22-10 22-22z m-331 170c-29 0-53-24-53-53 0-29 24-53 53-53 29 0 53 24 53 53 0 29-24 53-53 53z m0-85c-18 0-32 14-32 32 0 18 14 32 32 32 18 0 32-14 32-32 0-18-14-32-32-32z m0 149c-65 0-117-52-117-117 0-65 52-117 117-117 65 0 117 52 117 117 0 65-52 117-117 117z m0-213c-53 0-96 43-96 96 0 53 43 96 96 96 53 0 96-43 96-96 0-53-43-96-96-96z m309 160c0-6-4-11-10-11l-150 0c-6 0-10 5-10 11 0 6 4 11 10 11l150 0c6 0 10-5 10-11z m0-128c0-6-4-11-10-11l-150 0c-6 0-10 5-10 11 0 6 4 11 10 11l150 0c6 0 10-5 10-11z m0 64c0-6-4-11-10-11l-150 0c-6 0-10 5-10 11 0 6 4 11 10 11l150 0c6 0 10-5 10-11z"/>
<glyph glyph-name="refrigerator" unicode="&#86;" d="M405 512l-298 0c-24 0-43-19-43-43l0-426c0-24 19-43 43-43l298 0c24 0 43 19 43 43l0 426c0 24-19 43-43 43z m-298-21l298 0c12 0 22-10 22-22l0-149-342 0 0 149c0 12 10 22 22 22z m298-470l-298 0c-12 0-22 10-22 22l0 256 342 0 0-256c0-12-10-22-22-22z m-298 352l0 43c0 18 14 32 32 32 6 0 10-5 10-11 0-6-4-10-10-10-6 0-11-5-11-11l0-43c0-6-5-10-11-10-6 0-10 4-10 10z m42-128c0-6-4-10-10-10-6 0-11-5-11-11l0-43c0-6-5-10-11-10-6 0-10 4-10 10l0 43c0 18 14 32 32 32 6 0 10-5 10-11z"/>
<glyph glyph-name="restaurant-1" unicode="&#87;" d="M493 96c-42 35-138 115-186 157 24 16 47 24 56 24 15 0 64 52 147 154 3 4 3 10-1 14l-64 64c-4 4-10 4-14 1-102-83-154-132-154-147 0-8-6-27-18-47-3 10-3 18-3 25 0 25-157 138-196 162-13 7-27 8-40 1-12-7-20-20-20-34 0-12 5-23 14-30 17-15 55-52 96-91 35-35 71-70 97-94-48-42-152-130-188-159-12-10-19-26-19-42 0-30 24-54 54-54 16 0 32 7 42 19 30 36 118 141 160 188 41-46 124-145 160-188 10-12 26-19 42-19 30 0 54 24 54 54 0 16-7 32-19 42z m-369 268c-40 40-79 77-96 92-4 3-7 8-7 14 0 6 4 12 9 15 3 2 6 2 9 2 3 0 6 0 9-2 65-41 175-128 187-146 0-11 0-26 9-45 0 0-1-1-1-2-5-6-11-12-16-18-1-1-3-3-4-4-26 23-63 59-99 94z m-45-331c-6-7-15-12-25-12-18 0-33 15-33 33 0 10 5 19 12 25 51 43 169 142 204 175 2 2 4 4 5 5 2 2 4 4 6 6 2 3 4 5 6 7 1 1 2 3 3 4 3 4 6 7 8 10l0 1c0 0 0 0 0 0 20 28 34 59 33 74 5 12 73 73 139 126l7-7-100-99c-4-4-4-11 0-15 3-2 5-3 8-3 3 0 5 1 8 3l99 99 6-6-99-99c-4-5-4-11 0-16 2-2 5-3 7-3 3 0 6 1 8 3l99 100 7-7c-53-66-113-134-124-138-17 0-50-15-79-36 0 0 0 0 0 0-1-1-2-1-3-2-3-3-7-5-10-8-4-3-8-7-12-11-1-1-3-3-5-5-33-35-132-153-175-204z m379-12c-10 0-19 5-26 12-36 43-121 145-162 190 2 2 3 3 4 4 5 5 10 9 15 13 0 0 1 1 1 1 46-42 146-126 189-162 7-6 12-15 12-25 0-18-15-33-33-33z"/>
<glyph glyph-name="ruler" unicode="&#88;" d="M494 161l-333 333c-23 24-64 24-88 0l-55-55c-12-12-18-27-18-44 0-17 6-32 18-44l333-333c12-12 28-18 44-18 17 0 32 6 44 18l55 55c12 12 19 28 19 44 0 17-7 33-19 44z m-15-72l-55-56c-15-15-42-15-58 0l-333 333c-7 8-12 18-12 29 0 11 5 21 12 29l56 55c7 8 18 12 28 12 11 0 22-4 29-12l31-30-24-25c-5-4-5-11 0-15 2-2 4-3 7-3 3 0 6 1 8 3l24 24 49-49-24-24c-4-4-4-11 0-15 2-2 5-3 7-3 3 0 6 1 8 3l24 24 49-49-24-24c-4-4-4-11 0-15 2-2 5-3 7-3 3 0 6 1 8 3l24 24 49-49-24-24c-4-4-4-11 0-15 2-2 5-3 7-3 3 0 6 1 8 3l24 24 49-49-24-24c-4-5-4-11 0-15 2-3 5-4 8-4 2 0 5 1 7 4l25 24 30-31c8-7 12-18 12-29 0-11-4-21-12-28z m-383 338c-18 0-32-14-32-32 0-18 14-32 32-32 18 0 32 14 32 32 0 18-14 32-32 32z m0-43c-6 0-11 5-11 11 0 6 5 11 11 11 6 0 11-5 11-11 0-6-5-11-11-11z"/>
<glyph glyph-name="rupee-currency" unicode="&#89;" d="M437 405l-102 0c-2 8-5 15-8 21l110 0c6 0 11 5 11 11l0 64c0 3-1 6-3 8-2 2-5 3-8 3l-341 0c-5 0-9-5-10-10l-21-61c-2-3-1-7 1-10 2-3 5-4 9-4l118 0c18-1 35-8 46-22l-143 0c-5 0-9-3-10-7l-21-64c-2-3-1-7 1-10 2-2 5-4 9-4l164 0c-11-13-28-21-47-21l-117 0c-6 0-11-5-11-11l0-64c0-6 5-11 11-11l49 0 210-210c2-2 4-3 7-3l96 0c5 0 9 3 10 7 2 4 1 8-2 11l-204 204c45 16 80 52 94 98l102 0c6 0 11 5 11 11l0 64c0 6-5 10-11 10z m-10-64l-100 0c-5 0-9-3-11-8-11-48-49-85-97-95-4-1-7-4-8-8-1-4 0-8 2-10l199-199-66 0-210 211c-2 1-5 3-8 3l-43 0 0 42 107 0c33 0 62 19 77 49 1 3 1 7-1 10-2 3-5 5-9 5l-170 0 15 43 155 0c4 0 7 2 9 5 1 2 2 4 2 6 0 1 0 3-1 4-14 30-43 48-76 49l-103 0 14 43 323 0-1-43-117 0c-4 0-8-2-9-6-2-3-2-7 0-11 8-12 13-25 16-39 2-5 6-8 11-8l100 0 0-43z"/>
<glyph glyph-name="safe" unicode="&#90;" d="M213 171c47 0 86 38 86 85 0 23-10 45-25 60 0 0 0 0 0 0 0 0-1 0-1 0-15 16-36 25-60 25-47 0-85-38-85-85 0-47 38-85 85-85z m0 149c14 0 27-5 37-12l-15-15c-6 3-14 6-22 6-23 0-42-19-42-43 0-24 19-43 42-43 24 0 43 19 43 43 0 8-2 15-6 22l15 15c8-10 12-23 12-37 0-35-28-64-64-64-35 0-64 29-64 64 0 35 29 64 64 64z m22-64c0-12-10-21-22-21-11 0-21 9-21 21 0 12 10 21 21 21 6 0 11-2 15-6 0 0 0 0 0 0 0 0 0 0 1 0 3-4 6-9 6-15z m85 32c0 6 5 11 11 11l42 0c6 0 11-5 11-11 0-6-5-11-11-11l-42 0c-6 0-11 5-11 11z m0-64c0 6 5 11 11 11l42 0c6 0 11-5 11-11 0-6-5-11-11-11l-42 0c-6 0-11 5-11 11z m149 288l-426 0c-24 0-43-19-43-43l0-426c0-24 19-43 43-43l426 0c24 0 43 19 43 43l0 426c0 24-19 43-43 43z m22-469c0-12-10-22-22-22l-426 0c-12 0-22 10-22 22l0 426c0 12 10 22 22 22l426 0c12 0 22-10 22-22z m-54 405l-362 0c-6 0-11-5-11-11l0-64c0 6-5 11-11 11-6 0-10-5-10-11l0-42c0-6 4-11 10-11 6 0 11 5 11 11l0-150c0 6-5 11-11 11-6 0-10-5-10-11l0-42c0-6 4-11 10-11 6 0 11 5 11 11l0-64c0-6 5-11 11-11l362 0c6 0 11 5 11 11l0 362c0 6-5 11-11 11z m-10-363l-342 0 0 342 342 0z"/>
<glyph glyph-name="satellite-channels" unicode="&#48;" d="M361 361c-47 47-97 85-141 108-48 25-83 28-102 10-3-3-5-8-7-12-31-43-47-94-47-147 0-52 16-100 42-141-60-10-106-66-106-131l0-5c0-24 19-43 43-43l170 0c24 0 43 19 43 43l0 10c0 7-1 13-2 20 21-6 43-9 66-9 52 0 103 16 146 46 5 2 9 5 13 8 18 19 15 54-10 102-23 44-61 94-108 141z m-130-281c2-9 4-18 4-27l0-10c0-12-10-22-22-22l-170 0c-12 0-22 10-22 22l0 5c0 58 43 106 97 112 1 0 2 0 3 0 7-9 14-17 22-25 1-1 2-2 3-3 7-6 15-12 22-18 2-1 3-2 4-3 18-12 37-22 58-30 0 0 1-1 1-1z m89 5c-27 0-53 5-77 14-11 3-21 8-31 13 0 0 0 0 0 0-10 5-19 11-28 17-1 1-2 1-3 2-8 6-16 13-23 20-1 0-1 0-1 1-8 7-15 16-22 24-31 40-50 90-50 144 0 36 9 72 25 104 1-6 3-12 6-18 0-1 0-2 1-3 1-5 4-10 6-15 1-3 2-5 4-8 0-1 1-2 1-3 2-3 3-6 5-9 3-6 7-12 11-19 2-2 3-4 5-7 2-4 5-8 9-13 1-2 3-5 5-8 3-4 6-8 10-13 4-5 8-11 13-17 3-3 6-7 9-10 4-5 8-10 13-15 2-2 4-5 7-7 7-8 14-15 21-23 8-7 15-14 23-21 2-3 5-5 7-7 5-5 10-9 15-13 3-3 7-6 10-9 6-4 12-9 17-13 5-4 9-7 13-10 3-2 5-4 8-5 4-3 9-7 13-9 2-2 4-3 6-4 7-4 14-9 21-12 3-2 5-3 8-5 1 0 2-1 3-1 3-2 6-3 9-5 5-2 9-4 13-5 2-1 3-1 5-2 6-2 11-4 16-5 1 0 1 0 1 0-32-16-68-25-104-25z m144 48c-1-1-3-2-5-3 0 0-1 0-1 0-5-2-12-2-21-1 0 0-1 0-2 0 0 0-1 0-1 0-10 2-21 6-34 12 0 0 0 0 0 0-4 2-9 4-13 6 0 0 0 0-1 0-5 3-10 6-15 9 0 0 0 0-1 0-5 3-10 7-15 10-1 0-1 0-1 0-33 22-69 51-103 85-28 29-53 58-73 86 0 0-1 1-1 1-3 5-7 11-10 16-1 0-1 1-1 1-4 5-7 10-10 15 0 1 0 1 0 1-2 4-5 8-7 13-2 2-2 3-2 3-2 3-3 7-5 11-1 2-1 2-1 3-6 12-10 24-12 34 0 0 0 0 0 0 0 2 0 3 0 4-1 8-1 14 1 19 0 0 0 1 0 1 1 2 2 4 3 5 4 3 10 5 18 5 14 0 35-6 59-19 43-22 91-59 136-104 45-45 82-94 104-136 19-36 25-66 14-77z m-156 174c8-8 12-18 12-30 0-11-4-22-12-30-3-2-5-3-8-3-3 0-6 1-8 3-4 4-4 11 0 15 4 4 7 10 7 15 0 6-3 11-7 15-8 9-21 9-30 0-4-4-11-4-15 0-4 5-4 11 0 15 17 17 44 17 60 0z m204 2c0-6-5-10-11-10-6 0-10 4-10 10 0 100-82 182-182 182-6 0-10 4-10 10 0 6 4 11 10 11 112 0 203-91 203-203z m-203 118c-6 0-10 4-10 10 0 6 4 11 10 11 77 0 139-62 139-139 0-6-5-10-11-10-6 0-10 4-10 10 0 65-53 118-118 118z"/>
<glyph glyph-name="magnifying-glass-1" unicode="&#49;" d="M497 83l0 0-126 114c22 32 34 71 34 112 0 112-91 203-202 203-112 0-203-91-203-203 0-111 91-202 203-202 41 0 79 12 110 33l116-125c9-9 22-15 35-15 27 0 48 21 48 48 0 13-6 26-15 35z m-476 226c0 100 82 182 182 182 100 0 181-82 181-182 0-40-14-78-36-108-11-14-24-27-38-38-30-22-67-35-107-35-100 0-182 81-182 181z m443-288c-7 0-14 3-19 9l-114 122c10 9 19 18 27 28l124-113c6-5 9-12 9-19 0-15-12-27-27-27z m-251 416c0-6-4-10-10-10-65 0-118-53-118-118 0-6-4-10-10-10-6 0-11 4-11 10 0 77 62 139 139 139 6 0 10-5 10-11z"/>
<glyph glyph-name="lock-9" unicode="&#50;" d="M416 320l-11 0 0 43c0 82-67 149-149 149-82 0-149-67-149-149l0-43-11 0c-18 0-32-14-32-32l0-245c0-24 19-43 43-43l288 0c29 0 53 24 53 53l0 235c0 18-14 32-32 32z m-288 43c0 70 57 128 128 128 71 0 128-58 128-128l0-43-43 0 0 43c0 47-38 85-85 85-47 0-85-38-85-85l0-43-43 0z m64-43l0 43c0 35 29 64 64 64 35 0 64-29 64-64l0-43z m235-267c0-17-15-32-32-32l-288 0c-12 0-22 10-22 22l0 245c0 6 5 11 11 11l320 0c6 0 11-5 11-11z m-171 182c-24 0-43-19-43-43 0-12 6-24 15-32l-14-62c-1-3 0-6 2-9 2-2 5-4 8-4l64 0c3 0 6 2 8 4 2 3 3 6 2 9l-14 62c9 8 15 20 15 32 0 24-20 43-43 43z m19-128l-38 0 13 55c1 5-1 9-5 12-6 4-10 11-10 18 0 12 9 21 21 21 12 0 21-9 21-21 0-7-4-14-10-18-4-3-6-7-5-12l13-55z"/>
<glyph glyph-name="shower" unicode="&#51;" d="M424 402l-9 9c-9 8-22 10-32 5-24 21-53 32-84 32-23 0-45-6-65-18-14 12-32 18-51 18l-37 0c-35 0-68-14-93-38l-2-2c-33-33-51-77-51-124l0-209c0-6 5-11 11-11l42 0c6 0 11 5 11 11l0 199c0 34 13 65 37 89 13 13 31 21 51 21l25 0c4 0 7-1 10-2-11-19-16-40-16-62 0-31 11-61 31-84-1-4-2-8-2-12 0-8 3-15 8-20l8-9c2-2 5-3 8-3 3 0 6 1 8 3l192 192c4 4 4 11 0 15z m-216-9c-8 8-19 12-31 12l-25 0c-25 0-49-9-66-27-28-28-43-64-43-104l0-189-22 0 0 199c0 41 16 80 45 109l2 2c21 20 48 32 78 32l37 0c16 0 31-6 43-17 4-4 9-4 13-2 39 26 92 24 127-5l-150-150c-16 19-24 42-24 67 0 21 6 42 18 59 3 5 2 11-2 14z m16-175l-1 1c-1 1-2 3-2 5 0 2 1 4 2 5l166 167c2 1 4 2 6 2 2 0 4-1 5-2l1-1z m117-55c2-5-1-11-7-13-1 0-2-1-3-1-5 0-9 3-10 8l-22 64c-2 5 1 11 7 13 6 2 12-1 13-7z m46 53l-43 43c-4 4-4 11 0 15 5 4 11 4 16 0l42-42c4-5 4-11 0-16-2-2-5-3-7-3-3 0-6 1-8 3z m11 103l64-21c6-2 9-8 7-13-2-5-6-8-10-8-1 0-3 1-4 1l-64 21c-5 2-8 8-6 14 1 5 7 8 13 6z m27-196c3-5 2-11-3-15-2-1-4-1-6-1-3 0-7 1-9 4l-43 64c-3 5-1 12 3 15 5 3 12 2 15-3z m85 74c-2-3-5-5-9-5-2 0-4 1-6 2l-64 42c-4 4-6 10-3 15 4 5 10 6 15 3l64-42c5-4 6-10 3-15z"/>
<glyph glyph-name="shuttle-service" unicode="&#52;" d="M476 274c-10 4-20 11-32 22l-117 118c-22 22-52 34-83 34l-201 0c-24 0-43-19-43-43l0-266c0-18 14-32 32-32l25 0c9-25 33-43 60-43 28 0 52 18 60 43l158 0c8-25 32-43 60-43 27 0 51 18 60 43l14 0c24 0 43 19 43 42l0 75c0 23-14 43-36 50z m-359-189c-23 0-42 19-42 43 0 24 19 43 42 43 24 0 43-19 43-43 0-24-19-43-43-43z m278 0c-24 0-43 19-43 43 0 24 19 43 43 43 23 0 42-19 42-43 0-24-19-43-42-43z m96 64c0-11-10-21-22-21l-10 0c0 35-29 64-64 64-36 0-64-29-64-64l-150 0c0 35-28 64-64 64-35 0-64-29-64-64l-21 0c-6 0-11 5-11 11l0 266c0 12 10 22 22 22l201 0c25 0 50-10 68-28l117-118c14-14 27-22 40-27 13-5 22-17 22-30l0-75z m-86 118c0-6-4-11-10-11l-107 0c-6 0-11 5-11 11l0 106c0 6 5 11 11 11 6 0 11-5 11-11l0-96 96 0c6 0 10-4 10-10z m-266 117l-64 0c-6 0-11-5-11-11l0-106c0-6 5-11 11-11l64 0c6 0 10 5 10 11l0 106c0 6-4 11-10 11z m-11-107l-43 0 0 86 43 0z m117 107l-64 0c-6 0-10-5-10-11l0-106c0-6 4-11 10-11l64 0c6 0 11 5 11 11l0 106c0 6-5 11-11 11z m-10-107l-43 0 0 86 43 0z"/>
<glyph glyph-name="slippers" unicode="&#53;" d="M501 149l-213-9c-1 0-2 0-3 2-10 10-9 49-8 68 0 5 0 10 0 14 0 6-4 11-10 11-40 0-267-53-267-118l0-10c0-24 19-43 43-43l204 0c1 0 55 11 84 11 28 0 60-10 60-10 1-1 3-1 4-1l74 0c24 0 43 19 43 43l0 32c0 3-1 5-3 7-2 2-5 3-8 3z m-245 64c0 2 0 2 0 1-1-31-1-58 6-75l-235-10c11 13 40 31 97 51 50 17 104 30 132 33z m235-106c0-12-10-22-22-22l-73 0c-7 3-37 11-65 11-31 0-85-10-86-11l-202 0c-12 0-22 10-22 22l470 21z m18 253c-2 2-5 3-8 3l-213-10c-1 0-2 1-3 2-10 10-9 49-8 68 0 6 0 10 0 14 0 6-4 11-10 11-40 0-267-53-267-117l0-11c0-24 19-43 43-43l204 1c1 0 55 10 84 10 28 0 60-10 60-10 1 0 3-1 4-1l74 0c24 0 43 19 43 43l0 32c0 3-1 6-3 8z m-253 66c0 3 0 2 0 1-1-31-1-57 6-75l-235-10c11 13 40 31 97 51 50 17 104 30 132 33z m235-106c0-12-10-21-22-21l-73 0c-7 2-37 10-65 10-31 0-85-10-86-10l-202 0c-12 0-22 9-22 21l470 21z"/>
<glyph glyph-name="smoking" unicode="&#54;" d="M256 469c-118 0-213-95-213-213 0-118 95-213 213-213 118 0 213 95 213 213 0 118-95 213-213 213z m0-405c-106 0-192 86-192 192 0 106 86 192 192 192 106 0 192-86 192-192 0-106-86-192-192-192z m0 448c-141 0-256-115-256-256 0-141 115-256 256-256 141 0 256 115 256 256 0 141-115 256-256 256z m0-491c-129 0-235 106-235 235 0 129 106 235 235 235 129 0 235-106 235-235 0-129-106-235-235-235z m117 256l-277 0c-6 0-11-4-11-10l0-43c0-6 5-11 11-11l277 0c6 0 11 5 11 11l0 43c0 6-5 10-11 10z m-266-21l64 0 0-21-64 0z m256-21l-171 0 0 21 171 0z m64 32l0-43c0-6-5-11-11-11-6 0-11 5-11 11l0 43c0 6 5 10 11 10 6 0 11-4 11-10z m-19 35c-15 15-21 28-27 40-4 9-8 16-15 24-4 4-4 11 0 15 4 4 11 4 15 0 10-10 15-20 19-30 6-11 11-22 24-34 4-4 4-11 0-15-3-2-5-3-8-3-3 0-5 1-8 3z"/>
<glyph glyph-name="solo-credit-card" unicode="&#55;" d="M231 147c-4 0-7-1-10-2-3-2-6-4-8-6-2-3-3-6-4-9-1-3-1-5-1-7 0-3 0-5 2-8 1-2 3-4 5-6 3-2 6-2 10-2 4 0 8 1 12 3 3 2 6 5 8 9 2 4 3 8 3 12 0 5-1 9-5 12-3 3-7 4-12 4z m7-25c-2-3-3-5-6-7-2-1-4-2-6-2-3 0-5 1-7 3-2 2-3 4-3 7 0 4 2 8 4 12 3 4 6 5 10 5 3 0 5-1 7-2 2-2 3-4 3-8 0-2-1-5-2-8z m22-8l21 0-1-7-30 0 9 39 9 0-8-32z m46 33c-4 0-7-1-10-2-3-2-6-4-8-6-2-3-3-6-4-9-1-3-1-5-1-7 0-3 0-5 1-8 1-2 3-4 6-6 2-2 6-2 10-2 4 0 8 1 11 3 4 2 7 5 9 9 2 4 3 8 3 12 0 5-2 9-5 12-3 3-7 4-12 4z m6-25c-1-3-3-5-5-6-2-2-4-3-6-3-3 0-6 1-7 3-2 2-3 4-3 7 0 4 1 8 4 12 3 4 6 5 10 5 3 0 5-1 7-2 2-2 2-4 2-7 0-3 0-6-2-9z m-129 18c-1-1-2-2-2-3 0-2 1-2 2-3 1-1 3-2 6-3 4-2 8-4 9-5 2-2 3-4 3-7 0-3-2-6-5-9-3-2-7-3-12-3-3 0-6 0-9 1-3 2-4 3-5 5-2 2-2 4-2 7l8 0c0-2 1-4 1-4 2-2 4-3 7-3 3 0 5 1 6 2 2 1 2 2 2 3 0 1 0 2-1 3-1 1-3 2-6 3-3 1-6 2-7 3-2 1-3 2-4 4 0 1-1 3-1 5 0 3 1 6 4 8 2 2 6 3 11 3 5 0 8-1 11-3 3-2 4-5 4-9l-8 0c0 2-1 3-2 4-1 1-3 2-5 2-3 0-4-1-5-1z m286 308l-426 0c-24 0-43-19-43-43l0-298c0-24 19-43 43-43l426 0c24 0 43 19 43 43l0 298c0 24-19 43-43 43z m22-341c0-12-10-22-22-22l-426 0c-12 0-22 10-22 22l0 298c0 12 10 22 22 22l426 0c12 0 22-10 22-22z m-235 298c-65 0-117-52-117-117 0-65 52-117 117-117 65 0 117 52 117 117 0 65-52 117-117 117z m0-213c-53 0-96 43-96 96 0 53 43 96 96 96 53 0 96-43 96-96 0-53-43-96-96-96z m59 144l-15-15c-12 12-33 12-45 0-6-6-10-14-10-22 0-9 4-17 10-23l-15-15c-10 10-16 23-16 38 0 14 6 27 16 37 20 21 55 21 75 0z m-32-32c10-10 16-23 16-37 0-15-6-28-16-38-10-10-23-16-38-16-14 0-27 6-37 16l15 15c12-12 33-12 45 0 6 6 9 14 9 23 0 8-3 16-9 22l15 15z"/>
<glyph glyph-name="soundproof" unicode="&#56;" d="M468 512l-77 0c-5 0-10-5-10-11 0-3-9-7-16-10-12-6-28-13-28-31 0-17 16-24 28-30 7-3 16-7 16-10 0-4-9-8-16-11-12-6-28-13-28-30 0-17 16-25 28-30 7-3 16-8 16-11 0-4-9-8-16-11-12-5-28-13-28-30 0-17 16-25 28-30 7-3 16-7 16-11 0-3-9-7-16-11-12-5-28-13-28-30 0-17 16-24 28-30 7-3 16-7 16-11 0-3-9-7-16-10-12-6-28-13-28-30 0-17 16-25 28-31 7-3 16-7 16-10 0-4-9-8-16-11-12-6-28-13-28-30 0-17 16-25 28-31 7-3 16-7 16-10 0-6 5-11 10-11l77 0c24 0 44 19 44 43l0 426c0 24-20 43-44 43z m23-469c0-12-10-22-23-22l-68 0c-5 10-17 16-26 20-7 3-16 7-16 11 0 3 9 7 16 11 12 5 28 13 28 30 0 17-16 24-28 30-7 3-16 7-16 11 0 3 9 7 16 10 12 6 28 13 28 30 0 17-16 25-28 31-7 3-16 7-16 10 0 4 9 8 16 11 12 6 28 13 28 30 0 17-16 25-28 30-7 3-16 8-16 11 0 3 9 8 16 11 12 5 28 13 28 30 0 17-16 24-28 30-7 3-16 7-16 11 0 3 9 7 16 11 12 5 28 13 28 30 0 17-16 24-28 30-7 3-16 7-16 10 0 4 9 8 16 11 9 4 21 10 26 20l68 0c13 0 23-10 23-22z m-271 462c126-144 126-354 0-498-3-2-5-4-8-4-3 0-5 1-7 3-5 4-5 11-1 15 119 136 119 334 0 470-4 4-4 11 1 15 4 4 11 3 15-1z m-67-443c-2-2-5-3-8-3-3 0-5 1-7 2-5 4-5 11-1 15 91 104 91 256 0 360-4 4-4 11 1 15 4 4 11 3 15-1 98-113 98-275 0-388z m-67 56c-2-3-5-4-8-4-3 0-5 1-7 3-5 4-5 10-1 15 63 72 63 176 0 248-4 5-4 11 1 15 4 4 11 4 15-1 70-80 70-196 0-276z m-67 221c42-48 42-118 0-166-2-2-5-3-8-3-3 0-5 0-7 2-5 4-5 11-1 15 35 40 35 98 0 138-4 4-4 11 1 15 4 4 11 3 15-1z"/>
<glyph glyph-name="spa" unicode="&#57;" d="M448 137c-51 15-97 43-108 51l-8 24c16 19 28 44 34 69 2-2 4-4 7-4l1 0c5 1 8 4 10 8 15 59 15 107 0 145 14 9 21 18 21 29 0 53-82 53-149 53-46 0-87-18-111-50-31-40-37-99-17-177 1-4 5-7 10-8l1 0c3 0 5 2 7 4 6-25 18-50 34-69l-8-24c-11-8-57-36-108-51-38-11-64-45-64-84l0-10c0-24 19-43 43-43l426 0c24 0 43 19 43 43l0 10c0 39-26 73-64 84z m-79 181c-21 28-55 49-88 66 12 4 23 9 34 13 19 8 36 15 50 22 10-27 12-61 4-101z m-207 131c29 38 75 42 94 42 68 0 128-3 128-32 0-4-7-9-17-15 0 0 0 0 0 0 0 0 0 0 0 0-17-9-41-19-60-27-18-7-36-15-55-23 0 0 0 0 0 0l0 0c0 0 0 0 0 0-2-1-3-2-5-2-4-3-9-5-14-7-1-1-3-2-5-3-15-8-30-16-44-26-1 0-1-1-2-1-12-9-22-18-31-28-1-1-2-2-3-3-1-2-3-4-5-6-11 57-4 101 19 131z m1-141c17 22 47 43 93 64 1 0 2-1 4-2 3-1 7-3 11-5 1-1 3-1 4-2 4-2 8-4 12-7 0 0 1 0 1 0 9-5 16-10 23-15 1 0 2 0 2-1 3-2 6-4 8-6 2-1 4-2 5-3 9-8 16-15 22-22 1 0 1-1 1-1 0-1-1-2-1-4-4-53-45-112-92-112-47 0-88 59-92 112 0 2-1 3-1 4z m24-135c2 1 4 3 4 5l6 16c17-14 37-23 59-23 22 0 42 9 59 23l6-16c0-2 2-4 4-5 1-1 11-9 28-18l-97-97-97 97c17 9 27 17 28 18z m-166-130l0 10c0 30 20 55 49 63 26 8 50 18 69 28l123-123-219 0c-12 0-22 10-22 22z m470 0c0-12-10-22-22-22l-177 0-21 22 102 101c19-10 43-20 69-28 29-8 49-33 49-63z"/>
<glyph glyph-name="star-11" unicode="&#33;" d="M501 287c10 9 13 23 9 35-4 12-15 21-28 21l-130 7c-4 1-8 3-9 7l-58 136c-5 12-16 19-29 19-13 0-24-7-29-19l-58-136c-1-4-5-6-9-7l-130-7c-13 0-24-9-28-21-5-12-1-26 9-35l105-95c3-3 5-7 4-11l-36-141c-3-12 2-26 12-34 10-7 23-8 34-1l120 74c4 2 8 2 12 0l120-74c5-3 10-5 16-5 6 0 12 2 18 6 10 8 15 22 12 34l-36 141c-1 4 1 8 4 10l105 96z m-129-111l35-141c2-5-1-9-4-11-1-2-5-4-10-1l-120 74c-5 3-11 5-17 5-6 0-12-2-17-5l-120-74c-5-3-9-1-10 1-3 2-6 6-4 11l35 141c3 11 0 23-9 31l-106 96c-4 4-4 9-3 12 1 2 3 7 9 7l130 7c13 1 23 8 28 20l58 136c2 5 8 6 9 6 1 0 7-1 9-6l58-136c5-12 15-19 28-20l130-7c6 0 8-5 9-7 1-3 1-8-3-12l-106-96c-8-8-12-20-9-31z"/>
<glyph glyph-name="sun-deck" unicode="&#34;" d="M501 107l-332 0 115 182c14-9 25-20 31-32 8-13 9-25 4-34 0 0 0-1 0-1-1-1-1-2-1-4 0 0 0 0 0 0 0-1 0-1 0-1 0-2 0-3 1-4 0 0 0-1 0-1 1-2 3-3 4-4l0 0 0 0c2-1 3-1 5-1 0 0 0 0 0 0 1 0 1 0 1 0 1 0 3 1 4 1 0 0 1 1 1 1 1 1 3 2 4 4 0 0 0 0 0 0l0 0 0 0c11 20 48 22 82 4 34-18 54-51 43-71l0 0c-3-5-1-12 5-15 1 0 3-1 5-1 3 0 7 2 9 6 64 121 21 270-95 339l16 20c4 4 3 11-2 15-4 3-11 3-15-2l-18-22c-123 60-273 12-338-110 0 0 0 0 0 0-3-5-1-11 4-14 6-3 12-1 15 4 11 21 49 23 83 5 34-19 53-51 42-72l0 0c0-1-1-3-1-4 0 0 0 0 0 0 0-1 0-1 0-1 1-2 1-3 1-4 1-1 1-1 1-1 1-2 2-3 4-4 0 0 0 0 0 0l0 0c0 0 1 0 1 0 4-2 8-1 11 1 0 0 0 1 0 1 1 1 2 1 2 2 5 10 16 16 31 17 13 1 27-2 41-7l-119-189-130 70c-5 3-12 1-15-4-2-5-1-12 5-15l129-69-48-76c-3-5-2-11 3-14 2-1 4-2 6-2 4 0 7 2 9 5l51 80 253 0 40-79c2-4 6-6 10-6 1 0 3 0 4 1 6 3 8 9 5 15l-35 69 68 0c6 0 11 5 11 11 0 6-5 11-11 11z m-21 80c-9 19-26 36-50 49-19 10-38 15-56 15-6 0-13-1-19-2 23 48 58 134 49 189 74-60 104-160 76-251z m-338 202c-24 13-48 17-68 15 59 73 159 104 250 77-50-24-102-101-130-147-8 21-26 41-52 55z m80-62c-3 0-5-1-8-1 32 52 84 126 127 139 9 3 18 2 25-2 8-4 13-10 16-20 13-42-19-127-45-183-1 3-2 5-3 7-10 18-26 34-47 45l0 0c0 0 0 0 0 0-1 0-1 0-1 1-21 11-44 16-64 14z"/>
<glyph glyph-name="tube" unicode="&#35;" d="M512 256c0 17-10 32-25 39-16 98-94 176-192 192-7 15-22 25-39 25-17 0-32-10-39-25-98-16-176-94-192-192-15-7-25-22-25-39 0-17 10-32 25-39 16-98 94-176 192-192 7-15 22-25 39-25 17 0 32 10 39 25 98 16 176 94 192 192 15 7 25 22 25 39z m-47 43l-60 0c-6 0-11-2-16-4-14 45-49 80-94 94 2 5 4 10 4 16l0 60c83-17 149-83 166-166z m-185-157c-7 4-15 7-24 7-9 0-17-3-24-7-46 9-81 44-90 90 4 7 7 15 7 24 0 9-3 17-7 24 9 46 45 81 90 90 7-4 15-7 24-7 9 0 17 3 24 7 46-9 81-44 90-90-4-7-7-15-7-24 0-9 3-17 7-24-9-46-45-81-90-90z m-24 349c12 0 21-10 21-22l0-64c0-11-9-21-21-21-12 0-21 10-21 21l0 64c0 12 9 22 21 22z m-43-26l0-60c0-6 2-11 4-16-45-14-80-49-94-94-5 2-10 4-16 4l-60 0c17 83 83 149 166 166z m-170-188l64 0c11 0 21-9 21-21 0-12-10-21-21-21l-64 0c-12 0-22 9-22 21 0 12 10 21 22 21z m4-64l60 0c6 0 11 2 16 4 14-45 49-80 94-94-2-5-4-10-4-16l0-60c-83 17-149 83-166 166z m209-192c-12 0-21 10-21 22l0 64c0 6 2 11 6 15 0 0 0 0 0 0 4 4 9 6 15 6 6 0 11-2 15-6 0 0 0 0 0 0 4-4 6-9 6-15l0-64c0-12-9-22-21-22z m43 26l0 60c0 6-2 11-4 16 45 14 80 49 94 94 5-2 10-4 16-4l60 0c-17-83-83-149-166-166z m170 188l-64 0c-11 0-21 9-21 21 0 12 10 21 21 21l64 0c12 0 22-9 22-21 0-12-10-21-22-21z"/>
<glyph glyph-name="label" unicode="&#36;" d="M450 512l-149 0c-24 0-46-9-62-26l-218-217c-13-14-21-32-21-52 0-19 8-38 21-51l145-145c13-13 32-21 51-21 20 0 38 8 52 21l217 218c17 16 26 38 26 62l0 149c0 34-28 62-62 62z m41-211c0-18-7-35-20-47l-217-218c-20-19-54-19-73 0l-145 145c-9 10-15 22-15 36 0 14 6 27 15 37l218 217c12 13 29 20 47 20l149 0c22 0 41-19 41-41l0-149z m-96 147c-30 0-54-24-54-53 0-30 24-54 54-54 29 0 53 24 53 54 0 29-24 53-53 53z m0-85c-18 0-32 14-32 32 0 17 14 32 32 32 17 0 32-15 32-32 0-18-15-32-32-32z"/>
<glyph glyph-name="phone-6" unicode="&#37;" d="M494 140l-55 55c-23 24-64 24-88 0l-8-8c-18-17-46-21-67-9-13 7-32 20-55 43-23 23-36 42-43 55-5 8-7 18-7 27 0 15 6 29 16 40l8 8c12 12 19 27 19 44 0 17-7 32-19 44l-55 55c-23 24-64 24-88 0l-15-15c-24-24-37-55-37-89 0-14 2-28 7-41 14-41 50-122 135-207 85-85 166-121 207-135 13-5 27-7 41-7 34 0 65 13 89 37l15 15c12 12 19 27 19 44 0 17-7 32-19 44z m-15-73l-15-15c-28-28-70-38-108-25-39 14-117 48-199 130-82 82-116 160-130 199-4 11-6 23-6 34 0 28 11 54 31 74l15 15c8 8 18 12 29 12 11 0 21-4 29-12l55-55c8-8 12-18 12-29 0-11-4-21-12-29l-8-8c-14-14-22-34-22-55 0-13 3-26 10-38 7-13 22-35 46-59 24-24 45-39 59-46 29-17 69-12 93 12l8 8c16 16 43 16 58 0l55-55c8-8 12-18 12-29 0-11-4-21-12-29z"/>
<glyph glyph-name="toilet" unicode="&#38;" d="M437 301c0 0 0 0 0 0-1 11-9 21-21 29l29 116c2 7 3 15 3 23 0 24-19 43-43 43l-298 0c-24 0-43-19-43-43 0-8 1-16 3-23l29-116c-12-8-20-18-21-29 0 0 0 0 0 0l-11-42c0-1 0-2 0-3 0-58 42-108 104-133l-24-66c-4-13-3-27 5-39 8-11 21-18 35-18l144 0c14 0 27 7 35 18 8 12 9 26 5 39l-24 66c62 25 104 75 104 133 0 1 0 2 0 3l-11 42z m-351-46l4 17c29-25 98-37 166-37 68 0 137 12 166 37l4-17c-1-15-60-42-170-42-110 0-169 27-170 42z m26 61c0 0 1 0 1 0 11 6 25 11 42 15l1 0c17 4 35 7 56 8-1 0 0 0 1 1 7 0 13 0 18 1 2 0 3 0 4 0 7 0 14 0 21 0 7 0 14 0 21 0 1 0 2 0 4 0 5-1 11-1 17-1 1 0 2 0 2-1 21-1 40-4 56-8l1 0c17-4 31-9 42-15 0 0 1 0 1 0 10-6 16-12 16-17 0-18-62-43-160-43-98 0-160 25-160 43 0 5 6 11 16 17z m3 24l-27 111c-2 6-3 12-3 18 0 12 10 22 22 22l298 0c12 0 22-10 22-22 0-6-1-12-3-18l-27-111c0 0 0 0 0 0-17 7-38 13-61 17-2 0-5 0-7 1-3 0-6 1-9 1-3 0-6 1-9 1-1 0-4 0-7 1-5 0-8 0-11 0-4 1-7 1-11 1-2 0-5 0-7 0-6 1-13 1-19 1-6 0-13 0-19-1-2 0-5 0-7 0-4 0-7 0-11-1-3 0-6 0-9 0-5-1-8-1-11-1-1 0-4-1-7-1-3-1-6-1-9-1-2-1-5-1-7-2-23-3-44-9-61-16 0 0 0 0 0 0z m233-290c2-7 1-14-3-20-4-5-10-9-17-9l-144 0c-7 0-13 4-17 9-4 6-5 13-3 20l24 66c21-6 44-9 68-9 24 0 46 3 68 9l24-66z m-92 78c-78 0-144 40-164 93 35-19 100-29 164-29 64 0 129 10 164 29-20-54-86-93-164-93z m-85 320c0-12-10-21-22-21-11 0-21 9-21 21 0 10 7 18 17 20 1 1 3 1 4 1l32 0c6 0 11-4 11-10 0-6-5-11-11-11z"/>
<glyph glyph-name="towels" unicode="&#39;" d="M480 405l-12 0c-5 25-26 43-52 43l-299 0c-29 0-55-18-67-43l-18 0c-18 0-32-14-32-32 0-17 14-32 32-32l11 0 0-234c0-24 19-43 42-43l256 0c24 0 43 19 43 43l0 128 43 0c23 0 42 19 42 42l0 64 11 0c18 0 32 15 32 32 0 18-14 32-32 32z m-64 22c14 0 26-9 30-22l-60 0c4 13 16 22 30 22z m-352-256l299 0 0-22-299 0z m53 256l256 0c-6-9-10-20-10-32l0-203-299 0 0 181c0 30 24 54 53 54z m-85-64c-6 0-11 4-11 10 0 6 5 11 11 11l12 0c-1-4-1-7-1-11l0-10z m309-278l-256 0c-11 0-21 10-21 22l0 21 299 0 0-21c0-12-10-22-22-22z m107 192c0-11-10-21-21-21l-43 0 0 85 64 0z m32 86l-96 0 0 21 96 0c6 0 11-5 11-11 0-6-5-10-11-10z"/>
<glyph glyph-name="transport" unicode="&#40;" d="M476 274c-10 4-20 11-32 22l-81 81c-18 18-42 28-68 28l-39 0 0 32c0 6-5 11-11 11l-202 0c-24 0-43-19-43-43l0-266c0-18 14-32 32-32l25 0c9-25 33-43 60-43 28 0 52 18 60 43l158 0c8-25 32-43 60-43 27 0 51 18 60 43l14 0c24 0 43 19 43 42l0 75c0 23-14 43-36 50z m-359-189c-23 0-42 19-42 43 0 24 19 43 42 43 24 0 43-19 43-43 0-24-19-43-43-43z m278 0c-24 0-43 19-43 43 0 24 19 43 43 43 23 0 42-19 42-43 0-24-19-43-42-43z m96 64c0-11-10-21-22-21l-10 0c0 35-29 64-64 64-36 0-64-29-64-64l-150 0c0 35-28 64-64 64-35 0-64-29-64-64l-21 0c-6 0-11 5-11 11l0 266c0 12 10 22 22 22l192 0 0-32c0-6 4-11 10-11l50 0c20 0 39-8 53-22l81-81c14-14 27-23 41-27 12-5 21-17 21-30l0-75z m-86 118c0-6-4-11-10-11l-150 0c-6 0-10 5-10 11l0 85c0 6 4 11 10 11 6 0 11-5 11-11l0-75 139 0c6 0 10-4 10-10z"/>
<glyph glyph-name="monitor-2" unicode="&#41;" d="M469 448l-426 0c-24 0-43-19-43-43l0-234c0-24 19-43 43-43l149 0c-1-11-4-26-12-35-5-5-12-8-20-8-6 0-11-4-11-10 0-6 5-11 11-11l192 0c6 0 11 5 11 11 0 6-5 10-11 10-8 0-15 3-20 8-8 9-11 24-12 35l149 0c24 0 43 19 43 43l0 234c0 24-19 43-43 43z m-158-363l-110 0c9 14 12 32 12 43l86 0c0-11 3-29 12-43z m180 86c0-12-10-22-22-22l-426 0c-12 0-22 10-22 22l0 234c0 12 10 22 22 22l426 0c12 0 22-10 22-22z"/>
<glyph glyph-name="visa-card" unicode="&#42;" d="M109 294c-2 0-3 1-2 3 0 1 1 2 2 2l27 0 0 0c4-1 9-1 11-7 0 0 0 0 0 0l5-21c0-1-1-2-2-3 0 0-1 0-1 0l0 0c-1 0-2 0-2 1-9 11-22 19-38 25z m99 3c0 1-1 1-2 1l-20 0c-2 0-3 0-3-1l-24-57-3 9c0 0 0 0 0 0-3 8-14 21-28 31-1 1-2 1-3 0-1 0-2-2-1-3l19-62c1-1 2-2 3-2l23 1c1 0 2 0 2 1l38 80c0 1 0 2-1 2z m34 2l-19 0c-1 0-3-1-3-3l-15-80c0 0 0-1 1-2 0 0 1-1 2-1l20 0c1 0 2 1 2 3l15 79c0 1 0 2 0 3-1 0-2 1-3 1z m54-18l1 0c8 0 13-1 16-3 1 0 2 0 3 1 0 0 1 1 1 1l2 13c1 1 0 2-2 3-4 1-10 2-19 2-24 0-41-11-41-27 0-11 12-18 21-22 10-4 13-7 13-10 0-6-8-8-15-8-9 0-15 1-22 4-1 0-2 0-3 0-1 0-1-1-1-2l-3-13c0-1 1-2 2-3 7-2 16-3 25-3l0 0c26 0 42 11 42 28 0 9-6 16-20 22-9 4-14 6-14 10 0 4 5 7 14 7z m90 15l19-80c0 0 0-1 0-2-1 0-2-1-2-1l-18 0c-1 0-3 1-3 2 0 3-2 9-2 11-2 0-10 0-18 0l0 0c-4 0-9 0-14 0-1-1-3-5-5-11-1-1-2-2-3-2l-20 0c-1 0-2 1-2 2-1 0-1 1-1 2l36 74c2 5 6 7 13 7l17 0c2 0 3 0 3-2z m-10-52l-6 24-2 7-13-31z m136 161l0-298c0-24-19-43-43-43l-426 0c-24 0-43 19-43 43l0 298c0 24 19 43 43 43l426 0c24 0 43-19 43-43z m-21 0c0 12-10 22-22 22l-426 0c-12 0-22-10-22-22l0-298c0-12 10-22 22-22l426 0c12 0 22 10 22 22z"/>
<glyph glyph-name="visa-electron" unicode="&#43;" d="M107 347c0 1 1 2 2 2l27 0 0 0c4 0 9-1 11-7 0 0 0 0 0 0l5-20c0-2-1-3-2-3 0 0-1 0-1 0-1 0-2 0-2 1-9 10-22 19-38 24-2 1-3 2-2 3z m21-16c-1 0-2 0-3 0-1-1-1-2-1-3l20-62c0-1 1-2 2-2l23 0c1 0 2 1 2 1l38 80c0 1 0 2-1 3 0 0-1 1-2 1l-20 0c-2 0-3-1-3-2l-24-56-3 8c0 1 0 1 0 1-3 8-14 21-28 31z m189-64l36 75c2 5 6 7 13 7l17 0c2 0 3-1 3-2l19-80c0-1 0-2 0-2-1-1-2-1-2-1l-18 0c-1 0-2 1-3 2 0 2-2 8-2 11-2 0-10 0-18 0l0 0c-4 0-9 0-14 0-1-2-3-5-5-11-1-1-2-2-3-2l-20 0c-1 0-2 0-2 1-1 1-1 2-1 2z m38 27l21 0-6 25-2 7z m-149-29c0-1 1-1 2-1l20 0c1 0 2 1 2 2l15 80c0 1 0 1 0 2-1 1-2 1-3 1l-19 0c-1 0-3-1-3-2l-15-80c0-1 0-2 1-2z m43 3c7-2 16-4 25-4l0 0c26 0 42 11 42 28 0 10-6 17-20 22-9 4-14 7-14 11 0 3 5 7 14 7l1 0c8 0 13-2 16-3 1 0 2 0 3 0 0 0 1 1 1 2l2 12c1 2 0 3-2 3-4 1-10 3-19 3-24 0-41-11-41-27 0-12 12-19 21-23 10-4 13-6 13-10 0-5-8-8-15-8-9 0-15 2-22 5-1 0-2 0-3-1-1 0-1-1-1-1l-3-13c0-2 1-3 2-3z m263 137l0-298c0-24-19-43-43-43l-426 0c-24 0-43 19-43 43l0 298c0 24 19 43 43 43l426 0c24 0 43-19 43-43z m-491 0l0-192 470 0 0 192c0 12-10 22-22 22l-426 0c-12 0-22-10-22-22z m470-298l0 85-470 0 0-85c0-12 10-22 22-22l426 0c12 0 22 10 22 22z m-391 2l37 0 0 11-23 0 0 11 24 0 0 11-24 0 0 10 24 0 0 12-38 0 0-55z m47 59l0-59 14 0 0 59z m64-42l-28 0c0-4 2-9 10-9 5 0 8 2 11 4l5-8c-5-4-12-6-18-6-15 0-22 10-22 21 0 12 10 22 22 22 15 0 20-11 20-24z m-12 8c0 4-2 8-7 8-4 0-8-4-8-8z m42-16c-6 0-11 5-11 10 0 7 5 11 12 11 2 0 4-1 6-1l5 9c-3 2-9 3-14 3-13 0-22-9-22-22 0-14 9-21 21-21 5 0 11 2 15 4l-5 9c-2-1-5-2-7-2z m40 1c-3 0-4 1-4 5 0 3 0 9 0 15l12 0 0 10-11 0 0 13-13 0 0-13-7 0 0-10 6 0c0-6 0-11 0-16 0-9 0-16 11-16 5 0 10 2 14 4l-3 10c-2-1-3-2-5-2z m29 24l0 0 0 6-14 0 0-40 14 0 0 23c0 1 3 4 8 4 2 0 4 0 5 0l2 13c-2 1-3 1-5 1-5 0-8-4-10-7z m62-14c0-12-7-22-22-22-15 0-23 10-23 22 0 12 8 21 23 21 15 0 22-9 22-21z m-14 0c0 5-2 11-8 11-7 0-9-6-9-11 0-6 2-11 9-11 6 0 8 5 8 11z m49 21c-5 0-10-3-13-6l0 5-14 0 0-40 14 0 0 26c2 1 5 3 7 3 4 0 5-2 5-6 0-8 0-16 0-23l14 0c0 8 0 17 0 25 0 11-5 16-13 16z"/>
<glyph glyph-name="wi-fi" unicode="&#44;" d="M211 173c-13-12-19-28-19-45 0-17 6-33 19-45 12-13 28-19 45-19 16 0 33 6 45 19 12 12 19 28 19 45 0 17-7 33-19 45-25 25-65 25-90 0z m75-75c-17-17-44-17-60 0-8 8-13 19-13 30 0 11 5 22 13 30 8 8 19 13 30 13 11 0 22-5 30-13 8-8 13-19 13-30 0-11-5-22-13-30z m222 210c-2-2-4-3-7-3-3 0-6 2-8 5-9 11-17 21-26 29-56 57-131 88-211 88-80 0-155-31-212-88-8-8-16-17-25-29-3-5-10-5-15-2-4 4-5 10-2 15 10 12 18 22 27 31 61 61 141 94 227 94 85 0 166-33 226-94 9-9 18-19 28-31 3-5 3-12-2-15z m-66-37c4-5 3-12-2-15-2-2-4-2-6-2-4 0-7 1-9 4-6 8-12 15-18 21-40 40-94 62-151 62-57 0-111-22-151-62-6-6-12-13-18-21-4-5-11-6-15-2-5 4-6 10-2 15 7 9 13 16 20 23 44 44 103 69 166 69 63 0 122-25 166-69 7-7 13-14 20-23z m-68-52c4-5 3-12-2-15-1-2-4-2-6-2l0 0c-3 0-6 1-9 4-3 4-6 8-11 12-24 25-56 38-90 38-34 0-67-13-91-38-4-3-7-8-11-12-3-5-10-6-15-2-4 4-5 10-2 15 4 5 8 10 13 15 28 28 66 43 106 43 40 0 77-15 106-43 4-5 8-10 12-15z"/>
<glyph glyph-name="yen-currency" unicode="&#45;" d="M447 507c-2 3-6 5-10 5l-74 0c-4 0-8-2-10-5l-97-176-97 176c-2 3-6 5-10 5l-74 0c-4 0-8-2-10-5-1-4-1-8 0-11l116-197-85 0c-6 0-11-5-11-11l0-64c0-6 5-11 11-11l117 0 0-42-117 0c-6 0-11-5-11-11l0-64c0-6 5-11 11-11l117 0 0-74c0-6 5-11 11-11l64 0c6 0 11 5 11 11l0 74 117 0c6 0 11 5 11 11l0 64c0 6-5 11-11 11l-117 0 0 42 117 0c6 0 11 5 11 11l0 64c0 6-5 11-11 11l-85 0 116 197c1 3 1 7 0 11z m-143-214c-2-3-2-7 0-10 2-4 5-6 9-6l92 0 0-42-117 0c-6 0-11-5-11-11l0-64c0-6 5-11 11-11l117 0 0-42-117 0c-6 0-11-5-11-11l0-75-42 0 0 75c0 6-5 11-11 11l-117 0 0 42 117 0c6 0 11 5 11 11l0 64c0 6-5 11-11 11l-117 0 0 42 92 0c4 0 7 2 9 6 2 3 2 7 0 10l-115 198 50 0 104-187c3-7 15-7 18 0l104 187 50 0-115-198z"/>
<glyph glyph-name="euro-currency" unicode="&#97;" d="M397 113c-2 2-5 2-8 2-3 0-5-2-7-4-6-8-25-26-73-26-68 0-106 42-115 128l137 0c4 0 8 3 10 8l21 64c1 3 1 6-1 9-2 3-5 5-9 5l-158 0c9 86 47 128 115 128 48 0 67-18 73-26 2-2 4-4 7-4 3 0 6 0 8 2l47 41c5 4 5 10 2 14-29 39-75 58-137 58-115 0-188-78-200-213l-34 0c-6 0-11-5-11-11l0-64c0-6 5-11 11-11l34 0c12-135 85-213 200-213 62 0 108 19 137 58 3 4 3 10-2 14l-47 41z m-88-92c-107 0-171 73-180 204 0 5-5 10-11 10l-33 0 0 42 33 0c6 0 11 5 11 10 9 131 73 204 180 204 51 0 89-14 113-42l-31-27c-12 12-37 26-82 26-57 0-127-28-137-159 0-3 1-6 3-8 2-2 5-4 8-4l154 0-14-42-140 0c-3 0-6-2-8-4-2-2-3-5-3-8 10-131 80-159 137-159 45 0 70 15 82 26l32-27c-25-28-63-42-114-42z"/>
<glyph glyph-name="elevator-1" unicode="&#46;" d="M331 512l-299 0c-18 0-32-14-32-32l0-448c0-18 14-32 32-32l299 0c17 0 32 14 32 32l0 448c0 18-15 32-32 32z m10-480c0-6-4-11-10-11l-299 0c-6 0-11 5-11 11l0 448c0 6 5 11 11 11l299 0c6 0 10-5 10-11z m-117 331l-85 0c-30 0-54-24-54-54l0-106c0-18 15-32 32-32l0 0c4 0 8 0 11 2l0-98c0-18 14-32 32-32 8 0 16 3 21 8 6-5 13-8 22-8 17 0 32 14 32 32l0 97c3-1 7-1 10-1l0 0c18 0 32 14 32 32l0 106c0 30-24 54-53 54z m32-160c0-6-5-11-11-11-6 0-10 5-10 11l0 85c0 6-5 11-11 11-6 0-11-5-11-11l0-213c0-6-4-11-10-11-6 0-11 5-11 11l0 128c0 6-5 10-11 10-6 0-10-4-10-10l0-128c0-6-5-11-11-11-6 0-11 5-11 11l0 213c0 6-4 11-10 11-6 0-11-5-11-11l0-85c0-6-5-11-11-11-6 0-10 5-10 11l0 106c0 18 14 32 32 32l85 0c18 0 32-14 32-32z m-75 170c27 0 48 22 48 48 0 27-21 48-48 48-26 0-48-21-48-48 0-26 22-48 48-48z m0 75c15 0 27-12 27-27 0-14-12-26-27-26-14 0-26 12-26 26 0 15 12 27 26 27z m206-157c-4 4-4 11 0 15l53 54c5 4 11 4 16 0l53-54c4-4 4-11 0-15-2-2-5-3-8-3-2 0-5 1-7 3l-46 46-46-46c-4-4-11-4-15 0z m122-70c4-4 4-11 0-15l-53-54c-3-2-5-3-8-3-3 0-5 1-8 3l-53 54c-4 4-4 11 0 15 4 4 11 4 15 0l46-46 46 46c4 4 11 4 15 0z"/>
<glyph glyph-name="fan" unicode="&#47;" d="M447 245c-20 11-66 26-109 33-4 15-11 28-21 38 15 41 25 88 25 111 0 47-39 85-86 85-47 0-86-38-86-85 0-23 10-70 25-111-10-10-17-23-21-38-43-7-89-22-109-33-20-12-34-30-40-52-6-22-3-45 8-65 16-27 45-43 75-43 14 0 29 4 42 12 20 11 57 43 84 77 7-2 14-3 22-3 8 0 15 1 22 3 27-34 64-66 84-77 13-8 28-12 42-12 30 0 59 16 75 43 11 20 14 43 8 65-6 22-20 40-40 52z m-191 246c35 0 64-29 64-64 0-20-8-62-21-97-1 0-3 1-4 2-3 1-6 2-9 4-3 1-6 2-10 3-2 0-3 1-5 1-5 1-10 1-15 1-5 0-10 0-15-1-2 0-3-1-4-1-5-1-8-2-12-4-2-1-5-2-8-3-1-1-3-2-4-2-13 35-21 77-21 97 0 35 29 64 64 64z m-42-309c-25-29-57-57-74-67-31-17-70-7-88 24-9 14-11 32-7 48 5 17 16 31 30 39 18 10 58 23 95 30 0 0 0 0 0 0 0-2 1-4 1-6 0-2 0-5 1-8 0-2 0-4 1-6 1-4 2-9 4-13 0 0 0-1 1-1 1-3 2-6 4-9 0 0 1-1 1-2 4-5 8-11 13-15 0 0 0 0 0 0 5-5 11-10 17-13 0 0 0-1 0-1z m20 14c0 0 0 0 0 0-3 1-7 3-10 5 0 0 0 0 0 0-3 1-5 3-8 5-1 1-2 2-3 3-1 1-3 2-4 4-2 1-3 3-4 5-1 1-2 3-3 4-1 2-3 4-4 6 0 2-1 3-2 5 0 1-1 3-2 5 0 2-1 4-1 7 0 0 0 0 0 0-1 7-1 15 0 22 0 0 0 1 0 1 3 15 11 27 22 37 0 0 0 0 0 0 24 20 58 20 82 0 0 0 0 0 0 0 11-10 19-22 22-37 0 0 0-1 0-1 1-7 1-15 0-22 0 0 0 0 0-1 0-2-1-4-1-6-1-2-2-4-2-5-1-2-2-3-2-5-1-2-3-4-4-6-1-1-2-3-2-4-2-2-3-4-5-5-1-2-2-3-4-4-1-1-2-2-3-3-3-2-5-4-8-5 0 0 0 0 0 0-3-2-7-4-10-5 0 0 0 0 0 0-7-2-14-4-22-4-8 0-15 2-22 4z m226-57c-18-31-57-41-88-24-17 10-49 38-74 67 1 0 1 1 1 1 6 3 12 8 17 13 0 0 0 0 0 0 5 4 9 10 13 15 0 1 1 2 1 2 2 3 3 6 4 9 1 0 1 1 1 1 2 4 3 9 4 14 1 1 1 3 1 5 1 3 1 6 1 9 0 1 1 3 1 5 0 0 0 0 0 0 37-7 77-20 95-30 14-8 25-22 30-39 4-16 2-34-7-48z m-161 117c0 24-19 43-43 43-24 0-43-19-43-43 0-24 19-43 43-43 24 0 43 19 43 43z m-64 0c0 12 9 21 21 21 12 0 21-9 21-21 0-12-9-21-21-21-12 0-21 9-21 21z m-19-188c-6 1-9 7-8 12 1 6 7 10 13 9 23-6 47-6 70 0 6 1 12-3 13-9 1-5-2-11-8-12-13-3-27-5-40-5-13 0-27 2-40 5z m163 294c-4 4-4 11 1 15 4 4 11 4 15-1 18-20 32-43 40-68 2-6-1-12-7-14-1 0-2 0-3 0-5 0-9 3-10 7-8 23-20 43-36 61z m-247 15c5-4 5-11 1-15-17-18-28-38-36-61-1-4-5-7-10-7-1 0-2 0-3 0-6 2-9 8-7 14 8 25 22 48 40 68 4 5 11 5 15 1z m380-101c0-6-4-11-10-12 0 0 0 0-1 0-5 0-10 5-10 10-6 71-43 135-102 175-5 4-6 10-3 15 4 5 10 6 15 3 65-44 105-114 111-191z m-491-2c0-5-5-10-10-10-1 0-1 0-1 0-6 1-10 6-10 12 6 77 46 147 111 191 5 3 11 2 15-3 3-5 2-11-3-15-59-40-96-104-102-175z m351-235c2-5 0-11-5-14-35-16-73-25-111-25-38 0-76 9-111 25-5 3-7 9-5 14 3 6 9 8 14 6 65-31 139-31 204 0 5 2 11 0 14-6z"/>
<glyph glyph-name="alert" unicode="&#58;" d="M503 112l-219 383c-6 10-17 16-28 16-11 0-22-6-28-16l-219-383c-6-10-6-22 0-32 6-10 16-16 28-16l438 0c12 0 22 6 28 16 6 10 6 22 0 32z m-215 16l-64 0 0 64 64 0z m0 96l-64 0 0 128 64 0z"/>
<glyph glyph-name="alignment-align" unicode="&#59;" d="M112 480c-53 0-96-43-96-96 0-53 43-96 96-96 53 0 96 43 96 96 0 53-43 96-96 96z m240-272l80 80-224 0 0-224 80 80 144-144 64 64z"/>
<glyph glyph-name="alignment-aligned-to" unicode="&#60;" d="M208 224l64 64 144-144 80 80 0-224-224 0 80 80z m-96 64c-53 0-96 43-96 96 0 53 43 96 96 96 53 0 96-43 96-96 0-53-43-96-96-96z"/>
<glyph glyph-name="alignment-unalign" unicode="&#61;" d="M288 416l-64-64-128 128-64-64 128-128-64-64 32-32 192 192z m64-192l64 64-32 32-192-192 32-32 64 64 128-128 64 64z"/>
<glyph glyph-name="arrow-down" unicode="&#62;" d="M320 288l0 128-128 0 0-128-96 0 160-192 160 192z"/>
<glyph glyph-name="arrow-left" unicode="&#63;" d="M288 320l0 96-192-160 192-160 0 96 128 0 0 128z"/>
<glyph glyph-name="arrow-right" unicode="&#64;" d="M416 256l-192 160 0-96-128 0 0-128 128 0 0-96z"/>
<glyph glyph-name="arrow-small-down" unicode="&#91;" d="M288 288l0 64-64 0 0-64-64 0 96-128 96 128z"/>
<glyph glyph-name="arrow-small-left" unicode="&#93;" d="M288 288l0 64-128-96 128-96 0 64 64 0 0 64z"/>
<glyph glyph-name="arrow-small-right" unicode="&#94;" d="M352 256l-128 96 0-64-64 0 0-64 64 0 0-64z"/>
<glyph glyph-name="arrow-small-up" unicode="&#95;" d="M256 352l-96-128 64 0 0-64 64 0 0 64 64 0z"/>
<glyph glyph-name="arrow-up" unicode="&#96;" d="M256 416l-160-192 96 0 0-128 128 0 0 128 96 0z"/>
<glyph glyph-name="beer" unicode="&#123;" d="M448 384c-15 0-96 0-96 0l0 64c0 35-79 64-176 64-97 0-176-29-176-64l0-384c0-36 79-64 176-64 97 0 176 28 176 64l0 64c0 0 80 0 96 0 16 0 32 15 32 32 0 17 0 175 0 192 0 17-14 32-32 32z m-352-288l-32 0 0 256 32 0z m96-32l-32 0 0 256 32 0z m96 32l-32 0 0 256 32 0z m-112 320c-62 0-112 14-112 32 0 17 50 32 112 32 62 0 112-15 112-32 0-18-50-32-112-32z m240-224l-64 0 0 128 64 0z"/>
<glyph glyph-name="book" unicode="&#124;" d="M384 224l-64 0c-17 0-32-16-32-32l128 0c0 17-16 32-32 32z m-27 208c-84 0-105-16-117-28-12 12-33 28-116 28-84 0-124-23-124-39l0-293c15 8 60 24 107 28 58 4 117-5 117-16 0-8 4-16 16-16 0 0 0 0 0 0 0 0 0 0 1 0 11 0 15 8 15 16 0 11 60 20 117 16 47-4 93-20 107-28l0 293c0 16-40 39-123 39z m-133-286c-15 8-51 14-96 14-44 0-85-6-96-14 0 0 0 206 0 222 0 16 32 29 96 29 64 0 96-13 96-29 0-16 0-222 0-222z m224 0c-11 8-51 14-96 14-44 0-81-6-96-14 0 0 0 206 0 222 0 16 32 29 96 29 64 0 96-13 96-29 0-16 0-222 0-222z m-64 142l-64 0c-17 0-32-16-32-32l128 0c0 17-16 32-32 32z m0 64l-64 0c-17 0-32-16-32-32l128 0c0 17-16 32-32 32z m-224-64l-64 0c-16 0-32-15-32-32l128 0c0 16-15 32-32 32z m0-64l-64 0c-16 0-32-15-32-32l128 0c0 16-15 32-32 32z m0 128l-64 0c-16 0-32-15-32-32l128 0c0 16-15 32-32 32z"/>
<glyph glyph-name="bookmark" unicode="&#125;" d="M160 448l0-384 96 64 96-64 0 384z m158-98l-36-26 14-42c1-4-1-6-4-3l-36 26-36-26c-3-3-5-1-4 3l14 42-36 26c-3 2-3 4 2 4l44 0 13 42c2 4 4 4 6 0l13-42 44 0c5 0 5-2 2-4z"/>
<glyph glyph-name="briefcase" unicode="&#126;" d="M448 416l-128 0 0 33c0 17-14 31-31 31l-66 0c-17 0-31-14-31-31l0-33-128 0c-18 0-32-14-32-32l0-256c0-18 14-32 32-32l384 0c18 0 32 14 32 32l0 256c0 18-14 32-32 32z m-224 24c0 4 4 8 8 8l48 0c4 0 8-4 8-8l0-24-64 0z m224-184l-160 0 0-32-64 0 0 32-160 0 0 128 32 0 0-96 320 0 0 96 32 0z"/>
<glyph glyph-name="broadcast" unicode="&#92;" d="M256 416c71 0 128-58 128-128 0-35-14-66-36-89l-8-47c46 28 76 78 76 136 0 88-71 160-160 160-88 0-160-72-160-160 0-58 31-108 76-136l-8 47c-22 23-36 54-36 89 0 71 57 128 128 128z m-32-160c-18 0-32-15-32-32l0-64c0-18 15-32 32-32l0-128 64 0 0 128c17 0 32 14 32 32l0 64c0 17-14 32-32 32-18 0-32 0-32 0 0 0-14 0-32 0z m96 64c0 35-28 64-64 64-35 0-64-29-64-64 0-36 29-64 64-64 36 0 64 28 64 64z m-64 192c-123 0-224-101-224-224 0-99 64-182 153-212l-6 36c-68 30-115 97-115 176 0 106 86 192 192 192 106 0 192-86 192-192 0-79-47-146-114-176l-6-36c88 30 152 113 152 212 0 123-100 224-224 224z"/>
<glyph glyph-name="browser" unicode="&#57344;" d="M192 416l32 0 0-32-32 0z m-64 0l32 0 0-32-32 0z m-64 0l32 0 0-32-32 0z m384-320l-384 0 0 256 384 0z m0 288l-192 0 0 32 192 0z m32 32c0 18-14 32-32 32l-384 0c-18 0-32-14-32-32l0-320c0-18 14-32 32-32l384 0c18 0 32 14 32 32z"/>
<glyph glyph-name="bug" unicode="&#57345;" d="M194 434c-26-29-19-74-19-74 0 0 27-32 80-32 53 0 80 32 80 32 0 0 7 45-19 73 17 9 26 22 22 31-4 10-24 11-44 2-7-3-14-7-18-12-7 1-13 2-21 2-7 0-13-1-19-2-5 5-11 9-18 12-20 9-40 8-44-2-4-9 5-21 20-30z m201-207c-4 1-8 1-12 2 0 1 0 2 0 3 0 17-2 33-6 48 8-1 19 1 29 6 20 9 33 24 28 34-4 10-24 11-44 2-9-4-17-10-22-15-4 9-8 18-13 25-15-12-44-31-84-35l0-161c0 0 0-16-16-16-16 0-16 16-16 16l0 161c-40 4-68 23-83 35-5-7-9-16-13-24-5 5-13 10-21 14-20 9-40 8-44-2-5-10 8-25 28-34 10-4 19-6 27-6-3-15-6-31-6-48 0-1 0-2 0-3-3-1-6-1-10-2-26-5-46-19-44-30 1-11 23-16 49-10 4 1 7 1 10 2 5-20 12-39 22-55-6-3-12-8-18-14-16-16-22-35-14-43 8-8 27-1 43 15 5 4 9 9 11 14 22-21 49-34 79-34 30 0 58 13 80 35 3-5 7-10 12-15 16-16 35-23 43-15 8 8 2 27-14 43-7 7-13 11-20 14 10 17 18 36 22 56 4-1 8-2 12-3 26-6 48-1 49 10 2 11-18 25-44 30z"/>
<glyph glyph-name="calendar" unicode="&#57346;" d="M352 256l-32 0 0-64 32 0z m-64 0l-32 0 0-64 32 0z m64 96l-32 0 0-64 32 0z m64-96l-32 0 0-64 32 0z m-128-96l-32 0 0-64 32 0z m96 352l-32 0 0-64 32 0z m-256 0l-32 0 0-64 32 0z m288-160l-32 0 0-64 32 0z m-128 0l-32 0 0-64 32 0z m-128-192l-32 0 0-64 32 0z m-64 96l-32 0 0-64 32 0z m64 0l-32 0 0-64 32 0z m256 224l0-64-96 0 0 64-160 0 0-64-96 0 0 64-64 0 0-448 480 0 0 448z m32-416l-416 0 0 320 416 0z m-352 96l-32 0 0-64 32 0z m128 192l-32 0 0-64 32 0z m0-192l-32 0 0-64 32 0z m-64 192l-32 0 0-64 32 0z m64-96l-32 0 0-64 32 0z m128-96l-32 0 0-64 32 0z"/>
<glyph glyph-name="check" unicode="&#57347;" d="M384 416l-192-192-64 64-64-64 128-128 256 256z"/>
<glyph glyph-name="checklist" unicode="&#57348;" d="M445 254l-25 25c-3 3-9 3-12 0l-52-53-60-60-47 47c-3 3-8 3-12 0l-24-25c-4-4-4-9 0-12l52-52 9-9 16-16c3-4 8-4 12 0l24 25 119 118c3 3 3 9 0 12z m-266-32l25 24c21 22 58 22 79 0l13-12 57 54 0 160-288 0 0-352 160 0-46 46c-22 22-22 58 0 80z m-18 194l160 0 0-32-160 0z m0-64l160 0 0-32-160 0z m-32-96l-32 0 0 32 32 0z m0 64l-32 0 0 32 32 0z m0 64l-32 0 0 32 32 0z m32-96l32 0 0-32-32 0z"/>
<glyph glyph-name="chevron-down" unicode="&#57349;" d="M352 352l-96-96-96 96-64-64 160-160 160 160z"/>
<glyph glyph-name="chevron-left" unicode="&#57350;" d="M368 352l-64 64-160-160 160-160 64 64-96 96z"/>
<glyph glyph-name="chevron-right" unicode="&#57351;" d="M208 416l-64-64 96-96-96-96 64-64 160 160z"/>
<glyph glyph-name="chevron-up" unicode="&#57352;" d="M256 384l-160-160 64-64 96 96 96-96 64 64z"/>
<glyph glyph-name="circle-slash" unicode="&#57353;" d="M256 416c-88 0-160-72-160-160 0-88 72-160 160-160 88 0 160 72 160 160 0 88-72 160-160 160z m0-64c14 0 27-3 39-8l-127-127c-5 12-8 25-8 39 0 53 43 96 96 96z m0-192c-14 0-27 3-39 9l127 126c5-12 8-25 8-39 0-53-43-96-96-96z"/>
<glyph glyph-name="circuit-board" unicode="&#57354;" d="M160 384c18 0 32-14 32-32 0-18-14-32-32-32-18 0-32 14-32 32 0 18 14 32 32 32z m320-256c0-53-43-96-96-96l-224 0 96 96 41 0c11-19 31-32 55-32 35 0 64 29 64 64 0 35-29 64-64 64-24 0-44-13-55-32l-73 0-146-146c-28 17-46 47-46 82l0 256c0 53 43 96 96 96l0-73c-19-11-32-31-32-55 0-35 29-64 64-64 24 0 44 13 55 32l82 0c11-19 31-32 55-32 35 0 64 29 64 64 0 35-29 64-64 64-24 0-44-13-55-32l-81 0c-6 10-14 18-24 23l0 73 192 0c53 0 96-43 96-96z m-160 32c0 18 14 32 32 32 18 0 32-14 32-32 0-18-14-32-32-32-18 0-32 14-32 32z m0 192c0 18 14 32 32 32 18 0 32-14 32-32 0-18-14-32-32-32-18 0-32 14-32 32z"/>
<glyph glyph-name="clippy" unicode="&#57355;" d="M384 64l-320 0 0 288 320 0 0-96 32 0 0 160c0 17-14 32-32 32l-96 0c0 35-28 64-64 64-35 0-64-29-64-64l-96 0c-17 0-32-15-32-32l0-352c0-18 15-32 32-32l320 0c18 0 32 14 32 32l0 64-32 0z m-256 352c15 0 15 0 32 0 18 0 32 14 32 32 0 17 15 32 32 32 18 0 32-15 32-32 0-18 16-32 32-32 16 0 17 0 32 0 16 0 32-15 32-32l-256 0c0 19 14 32 32 32z m-32-256l64 0 0 32-64 0z m224 64l0 64-128-96 128-96 0 64 160 0 0 64z m-224-128l96 0 0 32-96 0z m160 224l-160 0 0-32 160 0z m-96-64l-64 0 0-32 64 0z"/>
<glyph glyph-name="clock" unicode="&#57356;" d="M224 224l128 0 32 32-32 32-64 0 0 96-32 32-32-32z m32 256c-124 0-224-100-224-224 0-124 100-224 224-224 124 0 224 100 224 224 0 124-100 224-224 224z m0-384c-88 0-160 72-160 160 0 88 72 160 160 160 88 0 160-72 160-160 0-88-72-160-160-160z"/>
<glyph glyph-name="cloud-download" unicode="&#57357;" d="M416 352c-4 0-9-1-13-1-24 57-81 97-147 97-66 0-123-40-147-97-4 0-9 1-13 1-53 0-96-43-96-96 0-53 43-96 96-96 10 0 20 2 29 5 17-19 41-31 67-35l0 32c-25 6-46 22-56 44-11-9-25-14-40-14-35 0-64 29-64 64 0 35 29 64 64 64 13 0 24-4 34-10 11 60 63 106 126 106 63 0 115-46 125-106 10 6 22 10 35 10 35 0 64-29 64-64 0-35-29-64-64-64-5 0-10 1-15 2-14-21-38-34-65-34-6 0-11 1-16 2l0-32c5-1 11-2 16-2 31 0 58 12 78 32 1 0 1 0 2 0 53 0 96 43 96 96 0 53-43 96-96 96z m-128-96l-64 0 0-160-64 0 96-96 96 96-64 0z"/>
<glyph glyph-name="cloud-upload" unicode="&#57358;" d="M256 320l-96-96 64 0 0-160 64 0 0 160 64 0z m160 32c-4 0-9-1-13-1-24 57-81 97-147 97-66 0-123-40-147-97-4 0-9 1-13 1-53 0-96-43-96-96 0-53 43-96 96-96 10 0 20 2 29 5 17-19 41-31 67-35l0 32c-25 6-46 22-56 44-11-9-25-14-40-14-35 0-64 29-64 64 0 35 29 64 64 64 13 0 24-4 34-10 11 60 63 106 126 106 63 0 115-46 125-106 10 6 22 10 35 10 35 0 64-29 64-64 0-35-29-64-64-64-5 0-10 1-15 2-14-21-38-34-65-34-6 0-11 1-16 2l0-32c5-1 11-2 16-2 31 0 58 12 79 32 0 0 0 0 1 0 53 0 96 43 96 96 0 53-43 96-96 96z"/>
<glyph glyph-name="code" unicode="&#57359;" d="M336 416l-48-48 112-112-112-112 48-48 144 160z m-160 0l-144-160 144-160 48 48-112 112 112 112z"/>
<glyph glyph-name="color-mode" unicode="&#57360;" d="M64 448l0-384 384 0 0 384z m32-352l0 320 320 0z"/>
<glyph glyph-name="comment" unicode="&#57361;" d="M416 448l-320 0c-31 0-64-32-64-64l0-192c0-64 64-64 64-64l32 0 0-128 128 128c0 0 129 0 160 0 31 0 64 34 64 64l0 192c0 31-32 64-64 64z"/>
<glyph glyph-name="comment-discussion" unicode="&#57362;" d="M160 256c0 32 0 96 0 96 0 0-80 0-96 0-16 0-32-16-32-32 0-16 0-144 0-160 0-16 16-32 32-32 16 0 32 0 32 0l0-96 97 96c0 0 81 0 96 0 15 0 31 16 31 32 0 16 0 32 0 32 0 0-64 0-96 0-32 0-64 32-64 64z m288 192c-16 0-208 0-224 0-16 0-32-16-32-32 0-16 0-144 0-160 0-16 16-32 32-32 16 0 95 0 95 0l97-96 0 96c0 0 16 0 32 0 16 0 32 16 32 32 0 16 0 144 0 160 0 16-16 32-32 32z"/>
<glyph glyph-name="credit-card" unicode="&#57363;" d="M64 160l64 0 0 32-64 0z m96 0l64 0 0 32-64 0z m32 96l-128 0 0-32 128 0z m-64 32l32 0 64 64-32 0z m96-64l96 0 0 32-96 0z m256 192c-16 0-432 0-448 0-16 0-32-16-32-32 0-16 0-240 0-256 0-16 16-32 32-32 16 0 432 0 448 0 16 0 32 16 32 32 0 16 0 240 0 256 0 16-16 32-32 32z m0-128l0-144c0 0 0-16-16-16l-416 0c-16 0-16 16-16 16l0 144 32 0 64 64-96 0 0 16c0 0 0 16 16 16l416 0c16 0 16-16 16-16l0-16-192 0-64-64z"/>
<glyph glyph-name="dash" unicode="&#57364;" d="M128 288l0-64 256 0 0 64z"/>
<glyph glyph-name="dashboard" unicode="&#57365;" d="M256 280c-31 0-56-25-56-56 0-31 25-56 56-56 31 0 56 25 56 56 0 4-1 8-2 12 41 48 104 122 138 164 12 14-1 28-16 16-43-35-116-97-163-138-4 1-9 2-13 2z m16 104c0 9-7 16-16 16-9 0-16-7-16-16 0-9 7-16 16-16 9 0 16 7 16 16z m96-128c0-9 7-16 16-16 9 0 16 7 16 16 0 9-7 16-16 16-9 0-16-7-16-16z m-176 128c-9 0-16-7-16-16 0-9 7-16 16-16 9 0 16 7 16 16 0 9-7 16-16 16z m-32-64c0 9-7 16-16 16-9 0-16-7-16-16 0-9 7-16 16-16 9 0 16 7 16 16z m-48-64c0-9 7-16 16-16 9 0 16 7 16 16 0 9-7 16-16 16-9 0-16-7-16-16z m224 112c0 9-7 16-16 16-9 0-16-7-16-16 0-9 7-16 16-16 9 0 16 7 16 16z m108-24l-34-45c4-14 6-28 6-43 0-88-72-160-160-160-88 0-160 72-160 160 0 88 72 160 160 160 33 0 64-10 89-27l40 30c-36 28-80 45-129 45-115 0-208-93-208-208 0-115 93-208 208-208 115 0 208 93 208 208 0 31-7 61-20 88z"/>
<glyph glyph-name="database" unicode="&#57366;" d="M256 32c-106 0-192 29-192 64 0 19 0 40 0 64 0 6 3 11 7 16 21-28 96-48 185-48 89 0 164 20 185 48 4-5 7-10 7-16 0-19 0-38 0-64 0-35-86-64-192-64z m0 128c-106 0-192 29-192 64 0 19 0 40 0 64 0 3 1 7 3 10 1 2 2 4 4 6 21-28 96-48 185-48 89 0 164 20 185 48 2-2 3-4 4-6 2-3 3-7 3-10 0-19 0-38 0-64 0-35-86-64-192-64z m0 128c-106 0-192 29-192 64 0 10 0 21 0 32 0 10 0 21 0 32 0 35 86 64 192 64 106 0 192-29 192-64 0-10 0-21 0-32 0-10 0-20 0-32 0-35-86-64-192-64z m0 160c-71 0-128-14-128-32 0-18 57-32 128-32 71 0 128 14 128 32 0 18-57 32-128 32z"/>
<glyph glyph-name="device-camera" unicode="&#57367;" d="M256 320c-35 0-64-29-64-64 0-35 29-64 64-64 3 0 6 0 8 1-23 3-40 23-40 47 0 27 21 48 48 48 24 0 44-17 47-40 1 2 1 5 1 8 0 35-29 64-64 64z m192 64l-64 0-64 64-128 0-64-64-64 0c-18 0-32-14-32-32l0-224c0-18 14-32 32-32l384 0c18 0 32 14 32 32l0 224c0 18-14 32-32 32z m-240 32l96 0 32-32-160 0z m-128-288c-9 0-16 7-16 16l0 144 32 0 0 32-32 0 0 16c0 9 7 16 16 16l91 0c-2-2-4-4-6-5-49-50-49-132 0-182l38-37z m176 32c-53 0-96 43-96 96 0 53 43 96 96 96 53 0 96-43 96-96 0-53-43-96-96-96z m160 112l-75 80 75 0z"/>
<glyph glyph-name="device-camera-video" unicode="&#57368;" d="M288 416c-18 0-32-14-32-32 0-18 14-32 32-32 18 0 32 14 32 32 0 18-14 32-32 32z m160-96l-64-64 0 32c0 15-11 28-25 31 15 17 25 40 25 65 0 53-43 96-96 96-51 0-92-39-96-89-17 16-39 25-64 25-53 0-96-43-96-96 0-53 43-96 96-96l-32 0 0-64 32 0 0-64c0-18 14-32 32-32l192 0c18 0 32 14 32 32l0 32 64-64 32 0 0 256z m-320 32c-18 0-32-14-32-32 0-18 14-32 32-32l0-32c-35 0-64 29-64 64 0 35 29 64 64 64 35 0 64-29 64-64l-32 0c0 18-14 32-32 32z m160-192l-64 0 0 64 64 0z m64 55c-17 16-35 35-37 36-3 3-7 5-11 5l-96 0c-9 0-16-7-16-16l0-96c0-4 2-8 4-11 0 0 20-19 37-37l-57 0c-9 0-16 7-16 16l0 160c0 9 7 16 16 16l160 0c9 0 16-7 16-16z m-64 105c-35 0-64 29-64 64 0 35 29 64 64 64 35 0 64-29 64-64 0-35-29-64-64-64z m160-160l-32 32 0 64 32 32z"/>
<glyph glyph-name="device-desktop" unicode="&#57369;" d="M480 480c-16 0-432 0-448 0-16 0-32-16-32-32 0-16 0-272 0-288 0-16 16-32 32-32 16 0 160 0 160 0 0 0-96-32-96-64 0-16 16-32 32-32 16 0 240 0 256 0 16 0 32 16 32 32 0 32-96 64-96 64 0 0 144 0 160 0 16 0 32 16 32 32 0 16 0 272 0 288 0 16-16 32-32 32z m0-320l-448 0 0 288 448 0z m-32 256l-96 0c-192-32-271-150-288-192l0-32 384 0z"/>
<glyph glyph-name="device-mobile" unicode="&#57370;" d="M384 512l-256 0c-18 0-32-14-32-32l0-448c0-18 14-32 32-32l256 0c18 0 32 14 32 32l0 448c0 18-14 32-32 32z m-144-32l32 0c9 0 16-7 16-16 0-9-7-16-16-16l-32 0c-9 0-16 7-16 16 0 9 7 16 16 16z m32-448l-32 0c-9 0-16 7-16 16 0 9 7 16 16 16l32 0c9 0 16-7 16-16 0-9-7-16-16-16z m112 64l-256 0 0 320 256 0z"/>
<glyph glyph-name="diff" unicode="&#57371;" d="M256 384l-64 0 0-64-64 0 0-64 64 0 0-64 64 0 0 64 64 0 0 64-64 0z m-128-320l192 0 0 64-192 0z m224 448l-256 0 0-32 240 0 112-112 0-304 32 0 0 320z m-320-64l0-448 384 0 0 352-96 96z m352-416l-320 0 0 384 240 0 80-80z"/>
<glyph glyph-name="diff-added" unicode="&#57372;" d="M288 352l-64 0 0-64-64 0 0-64 64 0 0-64 64 0 0 64 64 0 0 64-64 0z m160 128c-16 0-368 0-384 0-16 0-32-16-32-32 0-16 0-368 0-384 0-16 16-32 32-32 16 0 368 0 384 0 16 0 32 16 32 32 0 16 0 368 0 384 0 16-16 32-32 32z m-32-368c0-8-8-16-16-16-7 0-279 0-288 0-9 0-16 6-16 16 0 8 0 280 0 288 0 8 8 16 16 16 8 0 281 0 288 0 8 0 16-8 16-16 0-8 0-280 0-288z"/>
<glyph glyph-name="diff-ignored" unicode="&#57373;" d="M448 480l-384 0c-16 0-32-16-32-32l0-384c0-16 16-32 32-32l384 0c16 0 32 16 32 32l0 384c0 16-16 32-32 32z m-32-368c0-8-8-16-16-16l-288 0c-9 0-16 6-16 16l0 288c0 8 8 16 16 16l288 0c8 0 16-8 16-16z m-256 97l0-49 49 0 143 143 0 49-49 0z"/>
<glyph glyph-name="diff-modified" unicode="&#57374;" d="M448 480l-384 0c-16 0-32-16-32-32l0-384c0-16 16-32 32-32l384 0c16 0 32 16 32 32l0 384c0 16-16 32-32 32z m-32-368c0-8-8-16-16-16l-288 0c-9 0-16 6-16 16l0 288c0 8 8 16 16 16l288 0c8 0 16-8 16-16z m-160 208c-35 0-64-29-64-64 0-36 29-64 64-64 36 0 64 28 64 64 0 35-28 64-64 64z"/>
</font>
</defs>
</svg>
